<?xml version="1.0" standalone="no"?>
<!DOCTYPE svg PUBLIC "-//W3C//DTD SVG 20010904//EN"
 "http://www.w3.org/TR/2001/REC-SVG-20010904/DTD/svg10.dtd">
<svg version="1.0" xmlns="http://www.w3.org/2000/svg"
 width="600.000000pt" height="600.000000pt" viewBox="0 0 600.000000 600.000000"
 preserveAspectRatio="xMidYMid meet">
<metadata>
Created by potrace 1.11, written by Peter Selinger 2001-2013
</metadata>
<g transform="translate(0.000000,600.000000) scale(0.100000,-0.100000)"
fill="#000000" stroke="none">
<path d="M5078 4909 c-115 -27 -234 -123 -287 -231 -62 -125 -64 -250 -6 -376
l27 -57 -84 -77 c-45 -43 -86 -78 -91 -78 -4 0 -40 27 -80 61 -614 517 -1506
568 -2172 125 -399 -266 -653 -641 -757 -1117 -19 -90 -22 -134 -23 -329 0
-241 8 -304 61 -487 17 -58 21 -88 14 -93 -6 -4 -74 -33 -152 -65 l-141 -59
-16 24 c-85 130 -171 206 -296 267 -242 115 -541 68 -739 -118 -131 -122 -196
-262 -204 -439 -5 -127 12 -211 66 -320 46 -95 167 -221 262 -273 337 -184
758 -58 928 279 70 138 84 276 46 460 l-6 31 134 56 c73 30 141 59 150 62 14
6 23 -5 42 -49 40 -91 128 -234 203 -331 90 -116 263 -282 383 -367 191 -136
460 -250 705 -298 142 -28 404 -38 553 -20 528 62 1001 350 1290 785 36 55 67
102 69 105 2 2 42 -15 89 -38 l85 -42 -8 -38 c-38 -180 43 -349 205 -425 61
-29 76 -32 167 -32 93 0 105 2 166 32 249 123 282 458 63 626 -105 81 -267 99
-387 44 -31 -14 -81 -49 -111 -77 l-55 -52 -85 41 c-47 22 -86 42 -86 46 0 3
11 27 24 53 13 26 38 88 56 137 172 485 113 1037 -159 1475 -55 88 -163 231
-200 264 -11 11 -21 22 -21 26 0 4 40 42 89 83 l88 76 23 -23 c34 -37 139 -84
216 -97 193 -33 393 71 477 248 30 64 32 75 32 178 0 103 -2 114 -32 177 -76
161 -232 259 -406 257 -40 -1 -89 -5 -109 -10z m232 -94 c96 -34 183 -122 216
-219 24 -71 16 -195 -18 -261 -34 -66 -99 -129 -168 -163 -48 -23 -67 -27
-150 -27 -82 0 -103 4 -151 26 -158 74 -241 245 -195 403 59 202 269 311 466
241z m-1681 -310 c409 -58 747 -233 1035 -536 309 -325 473 -765 453 -1215
-28 -624 -401 -1180 -972 -1450 -604 -285 -1316 -207 -1840 201 -252 197 -465
495 -563 790 -337 1017 345 2075 1428 2214 107 14 348 12 459 -4z m-2657
-2178 c308 -112 444 -443 302 -736 -39 -81 -151 -189 -237 -230 -163 -78 -329
-78 -487 0 -328 162 -400 576 -145 835 114 115 249 168 410 160 62 -3 111 -12
157 -29z m4655 -293 c182 -88 223 -326 81 -471 -59 -60 -126 -87 -218 -87 -57
0 -86 6 -120 22 -107 52 -169 137 -178 247 -18 230 224 392 435 289z"/>
<path d="M5117 4779 c-227 -53 -310 -336 -147 -499 120 -120 313 -119 435 4
61 60 85 121 85 212 0 184 -188 327 -373 283z m186 -61 c153 -66 196 -283 80
-403 -97 -100 -250 -113 -358 -30 -120 91 -135 261 -33 372 85 92 189 112 311
61z"/>
<path d="M3136 4375 c-477 -78 -895 -358 -1136 -761 -231 -388 -283 -860 -140
-1284 179 -537 639 -936 1213 -1052 96 -20 142 -23 322 -23 179 1 225 4 315
24 336 72 589 209 826 445 135 135 221 251 291 390 269 535 215 1161 -142
1635 -232 307 -565 521 -950 608 -141 31 -456 41 -599 18z m203 -397 l48 -103
52 103 c28 56 55 102 59 102 4 0 49 -7 100 -15 196 -32 406 -120 566 -238 292
-216 470 -529 511 -897 l6 -55 -101 -50 -101 -50 96 -47 c52 -27 95 -52 95
-57 0 -35 -36 -187 -62 -259 -64 -183 -158 -332 -298 -472 -208 -209 -467
-333 -781 -375 l-46 -6 -28 73 c-16 40 -37 93 -47 118 l-20 45 -47 -115 -48
-115 -49 3 c-27 2 -83 10 -124 19 -415 82 -775 381 -931 768 -36 92 -75 238
-81 313 l-5 53 100 51 101 50 -102 48 -101 48 6 54 c9 79 47 224 83 314 142
357 474 648 856 750 81 22 175 39 227 43 13 1 30 -25 66 -101z"/>
<path d="M3108 2872 c-152 -394 -275 -718 -273 -720 2 -2 126 56 276 128 l273
132 96 -45 c52 -25 176 -83 275 -130 99 -47 182 -84 184 -82 4 5 -538 1417
-548 1427 -4 4 -131 -315 -283 -710z"/>
<path d="M710 2299 c-226 -39 -400 -244 -400 -469 1 -134 42 -234 139 -331
191 -191 489 -196 682 -12 103 98 149 203 149 342 0 129 -39 229 -128 323
-109 117 -283 174 -442 147z m286 -84 c234 -115 315 -405 174 -623 -85 -133
-245 -211 -405 -199 -224 17 -396 185 -412 403 -26 337 334 572 643 419z"/>
<path d="M5420 2011 c-67 -21 -132 -75 -163 -136 -67 -133 12 -308 159 -351
219 -64 408 154 307 355 -27 55 -84 105 -146 128 -36 13 -119 15 -157 4z m176
-44 c162 -84 165 -316 5 -399 -123 -64 -266 -13 -321 114 -65 151 57 316 225
305 34 -3 74 -11 91 -20z"/>
</g>
</svg>
