<?xml version="1.0" encoding="UTF-8" standalone="no"?>
<!-- Created with Inkscape (http://www.inkscape.org/) -->

<svg
   xmlns:dc="http://purl.org/dc/elements/1.1/"
   xmlns:cc="http://creativecommons.org/ns#"
   xmlns:rdf="http://www.w3.org/1999/02/22-rdf-syntax-ns#"
   xmlns:svg="http://www.w3.org/2000/svg"
   xmlns="http://www.w3.org/2000/svg"
   xmlns:sodipodi="http://sodipodi.sourceforge.net/DTD/sodipodi-0.dtd"
   xmlns:inkscape="http://www.inkscape.org/namespaces/inkscape"
   id="svg2"
   version="1.1"
   inkscape:version="0.91 r13725"
   width="5395"
   height="2892.5"
   viewBox="0 0 5395 2892.5"
   sodipodi:docname="ffnord-logo.svg">
  <metadata
     id="metadata8">
    <rdf:RDF>
      <cc:Work
         rdf:about="">
        <dc:format>image/svg+xml</dc:format>
        <dc:type
           rdf:resource="http://purl.org/dc/dcmitype/StillImage" />
        <dc:title />
      </cc:Work>
    </rdf:RDF>
  </metadata>
  <defs
     id="defs6" />
  <sodipodi:namedview
     pagecolor="#ffffff"
     bordercolor="#666666"
     borderopacity="1"
     objecttolerance="10"
     gridtolerance="10"
     guidetolerance="10"
     inkscape:pageopacity="0"
     inkscape:pageshadow="2"
     inkscape:window-width="3070"
     inkscape:window-height="1752"
     id="namedview4"
     showgrid="false"
     inkscape:zoom="0.32"
     inkscape:cx="2205.9323"
     inkscape:cy="1728.7487"
     inkscape:window-x="130"
     inkscape:window-y="48"
     inkscape:window-maximized="1"
     inkscape:current-layer="g4219" />
  <g
     inkscape:groupmode="layer"
     id="layer2"
     inkscape:label="alles"
     style="display:inline">
    <g
       transform="translate(-8.4578964,-204.52222)"
       id="g4219">
      <path
         style="fill:#acacac"
         d="m 1598.4328,1774.9596 c 151.6995,-36.3841 -4.294,-7.4146 -6.3746,-12.0121 -4.8856,-10.7962 -10.2844,-18.7195 -18.5785,-27.2657 -13.4516,-13.8604 -22.6709,-24.4723 -24.6518,-28.3754 -3.5793,-7.0529 -1.8053,-18.0741 3.9549,-24.5719 3.6611,-4.1297 15.3423,-8.5216 28.8721,-10.8554 11.064,-1.9085 14.63,-2.0313 24.1333,-0.8318 12.358,1.5598 15.1752,0.7981 15.6914,-4.2432 0.3886,-3.7958 2.5868,-18.2262 4.265,-27.9973 0.7085,-4.125 1.8691,-8.2062 2.5792,-9.0693 0.7153,-0.8692 0.9524,-3.688 0.5318,-6.3189 -0.5334,-3.3353 -0.1627,-5.6018 1.245,-7.6115 1.4778,-2.11 1.7987,-4.3635 1.2211,-8.5775 -0.5969,-4.3545 -0.2958,-6.2545 1.2646,-7.9787 1.4686,-1.6228 1.8608,-3.66 1.3859,-7.2001 -0.4445,-3.3139 -0.036,-5.8305 1.2409,-7.6542 1.3627,-1.9457 1.7002,-4.4286 1.1888,-8.7461 -0.523,-4.4159 -0.2311,-6.4299 1.0909,-7.527 0.9926,-0.8237 1.8049,-3.0846 1.8049,-5.0239 0,-11.0575 -21.3283,-9.9411 -47.8641,2.5053 -12.2584,5.7496 -20.8859,7.9447 -20.8859,5.3141 0,-2.0636 -7.6556,-8.7551 -10.9585,-9.5784 -7.0674,-1.7617 -11.556,-4.826 -16.3284,-11.1468 -6.2607,-8.2923 -11.0097,-17.6537 -12.1529,-23.956 -1.184,-6.528 -3.7172,-11.3897 -9.012,-17.2953 l -4.361,-4.8642 0.8113,-9.5108 c 1.1389,-13.3501 9.5202,-30.3226 18.9537,-38.382 10.4714,-8.9459 14.1904,-21.6388 9.4129,-32.126 -2.3316,-5.1183 -2.4861,-6.533 -1.2496,-11.4435 0.776,-3.0817 3.5185,-8.4279 6.0944,-11.8805 4.6763,-6.2677 4.6828,-6.2939 4.2716,-17.0589 -0.4725,-12.366 -3.3444,-18.7708 -11.3901,-25.4028 -6.4327,-5.3024 -12.1517,-5.1047 -28.2933,0.978 -15.4629,5.8269 -21.7825,6.893 -30.7586,5.1889 -4.9251,-0.9351 -8.0006,-2.4278 -11.0043,-5.3409 -4.045,-3.923 -4.5361,-4.0557 -16.5365,-4.4706 -8.2463,-0.2851 -15.2835,0.2355 -21.1175,1.5625 -4.8123,1.0945 -12.5917,1.9901 -17.2873,1.9901 -11.6432,0 -16.4823,3.3122 -19.1758,13.125 -3.2311,11.7716 -11.7377,21.3132 -20.23,22.6913 -4.9125,0.7972 -11.0797,-1.6634 -42.8131,-17.0815 -11,-5.3445 -24.005,-10.8965 -28.9,-12.3377 -12.0704,-3.5538 -23.2488,-11.2152 -28.9984,-19.8748 -3.9561,-5.9585 -4.5596,-7.8314 -4.4772,-13.8968 0.053,-3.8555 0.9896,-9.8205 2.0826,-13.2553 1.093,-3.4349 2.9412,-10.831 4.1071,-16.4357 1.1659,-5.6048 3.3159,-12.1723 4.7779,-14.5944 6.6597,-11.034 14.0064,-20.9012 16.0432,-21.5477 3.8464,-1.2208 11.7117,4.2401 14.2788,9.914 2.5199,5.5694 6.5547,8.197 14.0455,9.1464 3.6122,0.4578 6.0264,-0.3285 11.8085,-3.846 8.5671,-5.2117 22.8597,-9.5068 31.6354,-9.5068 3.4588,0 7.326,-0.7991 8.6702,-1.7916 2.3386,-1.7269 2.2456,-1.9792 -2.5736,-6.9781 -8.1211,-8.4239 -10.4163,-9.1692 -25.1878,-8.1797 -11.1132,0.7444 -13.5592,0.5405 -18.2005,-1.5172 -11.025,-4.8879 -10.7392,-8.2478 1.8514,-21.7739 6.7679,-7.2708 8.7539,-8.6325 15.1766,-10.4062 4.0643,-1.1224 10.0218,-3.417 13.2388,-5.0992 4.8511,-2.5365 8.1451,-3.1533 19.3059,-3.6149 16.0502,-0.6637 30.204,-2.4772 43.8156,-5.6138 10.1226,-2.3326 33.3632,-5.1512 61.875,-7.5041 8.5937,-0.7092 21.3194,-1.9221 28.2792,-2.6955 14.1254,-1.5695 13.9732,-1.5861 34.8458,3.7906 8.25,2.1252 17.1062,3.8683 19.6804,3.8737 7.3556,0.015 38.0563,-10.6051 45.9446,-15.8939 3.7812,-2.5352 12.5,-9.4738 19.375,-15.419 6.875,-5.9453 14.75,-11.9649 17.5,-13.3769 2.75,-1.412 8.5654,-6.3088 12.923,-10.8817 4.3576,-4.573 9.4201,-8.8858 11.25,-9.5841 1.8299,-0.6983 9.1077,-1.7341 16.1731,-2.3019 7.4258,-0.5967 13.6951,-1.7369 14.8583,-2.7023 1.1067,-0.9184 2.9925,-3.9279 4.1907,-6.6876 1.1983,-2.7598 3.6526,-6.3814 5.4543,-8.0481 1.8016,-1.6668 3.2756,-3.6976 3.2756,-4.5131 0,-0.8155 1.4062,-3.5549 3.125,-6.0876 6.039,-8.899 3.9555,-15.8816 -10.3125,-34.5625 -4.2969,-5.6258 -7.8125,-10.6693 -7.8125,-11.2078 0,-1.7864 -7.8903,-3.7637 -11.967,-2.9989 -5.8251,1.0928 -11.1509,7.3848 -13.6364,16.1103 -2.4137,8.4741 -7.3032,13.9286 -16.799,18.7405 -6.9942,3.5443 -18.6857,16.4354 -22.2534,24.5369 -2.9387,6.6731 -6.4603,9.1331 -21.5942,15.0844 -10.0636,3.9574 -11.4175,4.1714 -25.625,4.0497 -8.2973,-0.071 -19.4685,-1.0305 -25,-2.1472 -5.5,-1.1103 -16.1346,-2.5934 -23.6326,-3.2958 -11.3085,-1.0594 -15.0378,-1.9719 -21.875,-5.3528 -9.7549,-4.8236 -11.033,-8.1445 -6.061,-15.7478 4.7972,-7.336 4.8658,-8.3924 0.8727,-13.4172 -2.6042,-3.277 -3.6791,-6.0076 -3.6791,-9.3465 0,-6.4111 4.4334,-9.9426 17.0014,-13.5432 16.0108,-4.587 21.8078,-7.3014 32.3736,-15.1589 5.5,-4.0902 10.3797,-7.448 10.8439,-7.4619 1.2586,-0.038 12.1161,-18.3077 13.02,-21.909 0.4301,-1.7139 0.456,-4.4156 0.058,-6.0036 -0.8744,-3.4837 -10.4159,-10.599 -15.6048,-11.6368 -4.6661,-0.9332 -17.954,3.2547 -28.6721,9.0365 -8.4461,4.5563 -15.8394,5.4783 -22.3756,2.7908 -1.9354,-0.7958 -7.9728,-2.626 -13.4163,-4.0671 -5.4435,-1.4411 -10.1221,-3.2946 -10.3969,-4.1187 -0.3036,-0.9108 2.2938,-2.3105 6.6232,-3.5691 6.105,-1.7747 8.1657,-1.8492 14.4233,-0.5212 9.36,1.9863 32.6475,0.5962 42.7652,-2.5528 7.2286,-2.2497 12.1076,-5.4216 12.1076,-7.871 0,-0.6927 1.6272,-3.83986 3.6161,-6.9938 1.989,-3.15394 4.039,-7.14069 4.5558,-8.85944 0.5168,-1.71875 2.827,-5.92999 5.1338,-9.35831 3.1032,-4.61175 4.1943,-7.59851 4.1943,-11.48113 0,-6.91485 -1.7553,-11.25573 -4.9631,-12.27385 -3.2208,-1.02225 -32.1319,1.39839 -45.6619,3.82312 -16.7861,3.00826 -23.125,1.99926 -23.125,-3.68095 0,-2.2659 1.0385,-3.1943 4.8509,-4.3365 2.6678,-0.79934 9.138,-4.03018 14.3778,-7.17964 13.4638,-8.09231 13.9275,-11.33854 3.3473,-23.42919 -3.3569,-3.8361 -6.4348,-8.6867 -6.8398,-10.77914 -0.4048,-2.09242 -1.0845,-5.59341 -1.5101,-7.77997 -1.2444,-6.39268 -12.9316,-16.84181 -21.5611,-19.27695 -11.1739,-3.15315 -32.7189,-14.10389 -37.7535,-19.18911 -2.5,-2.52503 -7.1948,-6.76193 -10.4329,-9.41533 -7.944,-6.5095 -9.5001,-9.9398 -9.338,-20.58457 0.1711,-11.24262 -1.4789,-13.81674 -12.3557,-19.2757 -15.6728,-7.866 -19.6858,-7.07862 -22.3634,4.38798 -2.3526,10.07488 -2.0066,14.48953 1.6447,20.9853 4.0419,7.19029 3.5294,10.20054 -2.9807,17.50792 l -4.7105,5.28746 -17.3266,0.71734 -17.3267,0.71733 -4.8201,5.01635 c -3.2487,3.38094 -5.6774,7.66999 -7.4497,13.15602 -4.4398,13.74233 -6.9555,17.61253 -13.2624,20.40237 -8.8173,3.90025 -36.7893,8.83623 -54.8145,9.67264 -14.698,0.68201 -17.0858,1.13216 -25,4.71322 -24.7922,11.21795 -31.5948,14.15329 -32.8003,14.15329 -2.3766,0 -15.9231,-7.6438 -17.0257,-9.607 -1.5756,-2.8056 0.9897,-7.46099 5.3554,-9.71856 2.154,-1.11388 8.7241,-2.26426 15.3667,-2.69063 6.3821,-0.40963 14.6976,-1.50202 18.4789,-2.42751 3.7812,-0.92549 14.1875,-2.56677 23.125,-3.6473 8.9375,-1.08052 20.4687,-3.32111 25.625,-4.97908 5.1562,-1.65796 12.5486,-3.69011 16.4275,-4.51588 3.8787,-0.82578 9.5037,-2.8325 12.5,-4.4594 2.9961,-1.62689 8.3775,-4.34618 11.9587,-6.04286 4.73,-2.24098 8.244,-5.28993 12.8458,-11.14556 5.5382,-7.04728 7.4699,-8.52744 15.3639,-11.77336 4.966,-2.04196 10.2837,-4.09137 11.8171,-4.55425 1.5335,-0.46286 6.0335,-2.76178 10,-5.10871 3.9666,-2.34694 8.0302,-4.74833 9.0302,-5.33642 1.4054,-0.82655 2.075,-5.99852 2.9499,-22.78363 1.3074,-25.0873 1.2759,-25.16891 -10.3111,-26.70599 -5.6381,-0.74792 -11.332,-4.27354 -11.332,-7.01674 0,-0.43531 2.8187,-2.0654 6.2639,-3.6224 7.7235,-3.49058 9.1603,-6.03115 8.4706,-14.97713 -0.431,-5.5891 -1.6008,-8.63779 -5.7626,-15.01889 -2.872,-4.40346 -5.2219,-8.67905 -5.2219,-9.50133 0,-0.82226 -1.3171,-3.97222 -2.927,-6.99991 -1.6098,-3.02769 -3.651,-7.69866 -4.5359,-10.37996 -2.3752,-7.19718 -10.5377,-14.68495 -19.773,-18.13874 -8.2374,-3.08054 -9.7709,-4.62827 -15.8934,-16.04088 -1.9377,-3.61193 -5.057,-7.54943 -6.9317,-8.75 -1.8748,-1.20059 -5.6764,-5.06212 -8.4481,-8.58118 -2.7717,-3.51906 -7.0029,-7.61176 -9.4027,-9.0949 -2.3997,-1.48313 -8.6175,-7.46538 -13.8171,-13.29389 -10.6797,-11.9713 -14.2569,-20.36114 -12.7179,-29.82903 2.3505,-14.46077 2.299,-16.74189 -0.5093,-22.54323 -4.1027,-8.47479 -7.887,-10.58942 -20.8885,-11.67211 -9.866,-0.82158 -11.0304,-1.1808 -11.0304,-3.40303 0,-2.21041 1.379,-2.65539 12.5,-4.03364 6.875,-0.85202 18.3731,-2.67356 25.5515,-4.04786 12.6025,-2.41277 13.2616,-2.70396 19.1634,-8.46636 3.3616,-3.28221 7.1676,-8.00765 8.4578,-10.50099 1.2902,-2.49332 3.078,-4.81431 3.973,-5.15775 0.895,-0.34343 12.112,-0.42852 24.9268,-0.1891 l 23.2996,0.43533 22.1303,10.2115 22.1303,10.2115 10.8087,-1.03579 c 5.9447,-0.56968 19.2461,-1.07101 29.5586,-1.11406 l 18.75,-0.0783 8.2816,-5.32613 c 10.1015,-6.49654 18.2293,-8.23169 35.4684,-7.57206 8.8829,0.33989 13.766,1.1346 16.875,2.74638 7.3172,3.79337 17.6387,7.02754 22.3832,7.0136 2.4704,-0.008 11.3257,-1.93094 19.678,-4.27482 l 15.1863,-4.26159 25.4387,1.08264 c 32.5435,1.38501 43.3139,3.24586 64.5234,11.14795 5.316,1.98058 16.4154,5.65229 24.6654,8.15938 8.5571,2.60043 22.217,8.1505 31.8025,12.9215 l 16.8025,8.36315 16.9475,0 c 15.7462,0 17.6564,-0.26454 26.9475,-3.73205 8.952,-3.34093 11.441,-3.72365 23.75,-3.65182 12.4057,0.0724 14.6805,0.45998 23.2677,3.96419 5.2348,2.13617 13.9535,4.7305 19.375,5.76519 5.4215,1.03469 13.7948,3.38039 18.6073,5.21268 7.4441,2.83422 27.8471,8.96567 64.368,19.34367 10.3694,2.94664 13.7589,6.57708 13.7524,14.73034 0,3.74195 -0.9498,7.41789 -2.6132,10.14637 -1.8012,2.95478 -2.3806,5.41699 -1.8725,7.95793 0.9548,4.7732 8.9404,17.91001 11.4797,18.8844 1.0807,0.41475 6.841,0.76645 12.8003,0.78155 7.9587,0.0201 12.2347,0.6627 16.1062,2.42026 5.0476,2.29141 6.6175,2.32804 37.0502,0.86454 21.2543,-1.02212 32.3928,-2.03734 33.6315,-3.0654 1.0186,-0.84544 3.0626,-4.85728 4.5423,-8.91521 4.2912,-11.76928 11.644,-18.92429 24.8991,-24.22952 11.555,-4.62485 30.6865,-7.78037 36.9119,-6.08823 2.5016,0.67995 24.5691,22.63848 24.5691,24.44773 0,3.73482 3.0179,14.28879 4.5791,16.01398 3.6784,4.06449 6.4623,2.81752 9.6124,-4.30564 3.7456,-8.46937 13.3374,-17.19865 22.2524,-20.25134 4.5155,-1.5462 12.194,-2.53181 23.6888,-3.04068 l 17.0077,-0.75294 4.9693,-4.49408 c 3.2119,-2.9048 6.7402,-4.77726 9.9769,-5.29483 2.7866,-0.4456 7.4538,-2.66769 10.523,-5.01013 7.2903,-5.56401 13.5459,-8.64167 24.866,-12.2338 7.1035,-2.25411 10.7083,-4.27139 15,-8.39431 3.1071,-2.98493 7.6545,-6.45879 10.1053,-7.7197 2.9498,-1.5178 5.2433,-4.03931 6.7865,-7.46131 1.282,-2.8428 3.318,-5.69707 4.5245,-6.34279 1.2066,-0.64573 7.2932,-1.17405 13.526,-1.17405 13.8062,0 14.284,1.06207 4.0828,9.07652 -5.5345,4.34818 -8.3433,7.82238 -11.875,14.6878 -2.5441,4.94587 -4.6257,10.24452 -4.6257,11.77478 0,3.657 6.3466,13.12796 12.557,18.7387 4.861,4.3916 5.142,4.4722 15.5897,4.4722 9.3248,0 11.9887,0.55115 21.5589,4.46042 7.2169,2.94799 14.3101,4.82717 20.9194,5.54199 12.2025,1.31979 22.6456,4.11094 43.2844,11.56873 8.6815,3.13701 22.1815,6.90355 30,8.3701 24.319,4.56155 26.4127,5.0132 37.9656,8.1898 6.1875,1.70132 16.5937,3.63301 23.125,4.29263 6.5312,0.65964 17.5,2.37399 24.375,3.80969 18.084,3.77644 40.3312,8.83769 47.1604,10.72894 3.7838,1.04791 6.1836,1.19452 6.6701,0.40751 1.0802,-1.74792 -1.8364,-4.86981 -4.5498,-4.86981 -4.2983,0 -8.5301,-2.84108 -9.8435,-6.60883 -1.6905,-4.84936 -1.7033,-24.07463 -0.019,-27.22335 1.1771,-2.19947 2.7857,-2.42182 17.8125,-2.46212 10.6516,-0.0286 17.4227,-0.58351 19.0644,-1.5625 2.5335,-1.5108 27.6845,-27.94966 40.3446,-42.41039 l 6.6404,-7.5849 -0.1468,-12.63645 c -0.081,-6.95006 0.4763,-19.10521 1.2379,-27.01146 0.7615,-7.90625 1.6372,-35.46875 1.946,-61.25 0.3089,-25.78125 0.8525,-48.14063 1.2081,-49.6875 0.7028,-3.05713 3.5943,-3.75051 5.2126,-1.25 0.5562,0.85937 1.396,22.9375 1.8663,49.0625 0.9914,55.07305 2.1455,74.35424 4.629,77.3369 1.3062,1.5688 1.4859,3.69585 0.7282,8.6228 -2.4393,15.86297 -2.4365,15.87052 10.813,29.36277 6.5772,6.69764 13.0309,13.61205 14.3417,15.36537 1.3107,1.7533 8.1977,8.67656 15.3046,15.385 10.5532,9.96172 13.5262,12.12661 16.221,11.81217 6.0734,-0.70869 6.4441,-3.32324 6.4641,-45.59527 0.012,-21.42815 0.3598,-39.85003 0.7771,-40.9375 1.2897,-3.36075 3.9267,-2.18469 4.6757,2.08526 0.392,2.23437 0.7515,24.55505 0.799,49.60149 0.059,31.02296 0.5225,46.06447 1.4546,47.1875 0.7525,0.90668 3.0237,1.64851 5.0472,1.64851 5.5868,0 8.5148,2.0894 8.5148,6.07609 0,4.03785 -4.0559,8.34919 -9.0113,9.57888 -6.0655,1.50519 -6.2802,2.55517 -5.0478,24.68572 0.627,11.25838 1.5991,21.21285 2.1605,22.12103 0.7956,1.28734 4.2636,1.48818 15.7367,0.91132 10.712,-0.53859 15.0554,-0.33136 15.9624,0.76163 0.7675,0.92471 1.0959,11.24145 0.8547,26.85453 l -0.3915,25.35295 15.8057,12.27427 c 21.2943,16.5367 35.7195,29.56864 59.7582,53.98698 35.4061,35.9651 57.9395,65.10709 84.4919,109.2716 12.9767,21.58425 18.2859,31.66675 32.0146,60.79835 10.4605,22.1964 27.5986,71.4361 33.8753,97.3267 1.4167,5.8437 3.0851,12.3125 3.7077,14.375 0.6225,2.0625 1.4978,6.2812 1.9448,9.375 0.4471,3.0937 1.2855,7.3125 1.8632,9.375 0.5776,2.0625 1.4116,5.3715 1.853,7.3534 l 0.8028,3.6034 8.2168,-0.6596 c 6.4252,-0.5158 10.431,-1.8127 18.372,-5.9481 23.828,-12.4089 27.2827,-13.8928 36.4073,-15.6387 17.0367,-3.2596 31.6292,-1.8702 70.623,6.7247 20.1269,4.4362 21.3169,4.8688 34.9741,12.7147 9.8598,5.6642 22.5975,11.5071 56.2669,25.8102 15.7499,6.6907 34.1321,12.2677 44.384,13.4658 4.125,0.4821 12.5625,2.2023 18.75,3.8228 6.1875,1.6205 13.7812,3.3334 16.875,3.8066 3.0937,0.4731 14.625,3.8707 25.625,7.5503 11,3.6795 25.625,8.141 32.5,9.9144 6.907,1.7816 19.6189,6.5534 28.4102,10.6647 8.7507,4.0922 16.509,7.4404 17.241,7.4404 2.589,0 14.0953,11.9655 17.7867,18.4966 3.9512,6.991 8.1445,9.7485 25.0008,16.4407 6.0815,2.4145 7.6803,3.7462 10.3792,8.6459 4.0043,7.2695 7.2613,9.6657 16.3587,12.0353 9.0558,2.3587 13.8908,2.3617 26.2543,0.016 6.8816,-1.3055 16.3941,-1.7743 31.7005,-1.5625 l 21.8691,0.3026 11.2025,-4.0624 c 10.4035,-3.7727 35.0896,-16.99 48.1725,-25.7923 3.0937,-2.0815 9.6019,-7.4658 14.4625,-11.965 24.0707,-22.281 36.6924,-30.355 54.169,-34.6514 11.2682,-2.7702 16.0679,-5.3836 25.8737,-14.0881 12.5975,-11.1825 16.5773,-11.8546 59.8333,-10.104 18.5826,0.7521 37.724,1.4902 42.5365,1.6403 6.6911,0.2086 8.75,0.7 8.75,2.0881 0,1.0921 -2.0965,2.3369 -5.263,3.125 -10.1186,2.5181 -10.0343,6.7115 0.1867,9.2852 6.439,1.6213 12.855,0.6256 30.568,-4.7439 6.6045,-2.0022 14.9895,-4.2515 18.6333,-4.9986 9.7814,-2.0055 13.0801,-4.1698 20.9659,-13.7554 6.6613,-8.0972 7.664,-8.8131 15.2011,-10.8533 7.9247,-2.1451 8.2807,-2.1334 19.8475,0.6551 8.1437,1.9633 12.1571,3.5479 13.0067,5.1354 2.0338,3.8 1.3957,10.3495 -1.5837,16.2579 -2.8828,5.7168 -4.6919,6.9709 -28.5056,19.7622 -3.8188,2.0512 -9.3563,5.7456 -12.3058,8.2098 -2.9495,2.4642 -5.804,4.4804 -6.3434,4.4804 -0.5393,0 -4.1702,-1.4603 -8.0686,-3.245 -8.279,-3.7903 -12.7685,-3.3406 -13.9579,1.3981 -1.2096,4.8196 2.3464,9.1738 8.2652,10.1203 4.6126,0.7376 5.6425,1.7161 5.0426,4.7911 -0.1276,0.6543 1.0034,11.0606 2.5135,23.125 2.0149,16.0987 3.9264,25.5942 7.1834,35.6855 4.3258,13.4029 4.4566,14.3968 5.1783,39.375 0.5672,19.632 1.2758,27.379 3.0299,33.125 7.5258,24.6515 9.3831,32.3426 10.1324,41.9572 0.9651,12.3824 1.2572,11.9392 -10.6015,16.0884 -10.8299,3.7892 -17.847,8.398 -26.875,17.6513 -6.616,6.7811 -10.0045,8.8983 -28.75,17.9636 -11.6875,5.6521 -27.4375,13.6453 -35,17.7628 -7.5625,4.1174 -18.5313,9.6665 -24.375,12.3313 -16.1835,7.38 -25.9411,14.3535 -36.8463,26.333 -5.4618,6.0001 -14.1716,14.0264 -19.3547,17.8361 -5.1833,3.8099 -14.7678,12.0455 -21.299,18.3015 -14.9025,14.2744 -23.8029,18.7828 -34.7775,17.6163 -3.9036,-0.4149 -15.535,-1.2033 -25.8475,-1.7519 -10.3125,-0.5486 -20.317,-1.6588 -22.2321,-2.4671 -2.8063,-1.1844 -3.6094,-1.1377 -4.1383,0.2403 -0.6545,1.7059 0.105,36.2677 1.4424,65.6332 0.624,13.7022 1.0452,15.9451 3.6381,19.375 2.0486,2.7098 3.1961,6.3886 3.8074,12.2057 0.9176,8.7321 1.7914,9.7121 8.7325,9.7934 4.2994,0.05 15.8329,6.1281 21.4439,11.3001 2.9563,2.7251 5.8097,4.958 6.3407,4.962 0.5309,0 4.2564,0.5463 8.2786,1.2049 9.2393,1.5131 17.3367,6.224 22.2319,12.934 3.4584,4.7404 3.7443,5.843 3.0601,11.8024 -1.443,12.5688 3.3513,18.5788 16.2813,20.41 5.1095,0.7236 9.5414,2.1291 11.0677,3.5101 1.4002,1.2667 4.0927,2.6691 5.9833,3.1161 4.6892,1.1089 4.549,5.4833 -0.3125,9.7491 -3.6165,3.1734 -3.75,3.6703 -3.75,13.9547 0,7.167 0.5124,10.9903 1.5625,11.6593 0.8594,0.5474 7.75,1.896 15.3125,2.9968 8.5081,1.2385 16.371,3.2179 20.625,5.192 3.7812,1.7547 9.9687,3.5667 13.75,4.0266 12.2716,1.4926 16.9356,7.2176 7.2176,8.8595 -2.9052,0.4908 -8.3896,2.487 -12.1875,4.4361 -6.4211,3.2953 -32.0675,9.8912 -38.4591,9.8912 -5.5991,0 -2.6756,2.5041 3.1165,2.6695 -91.8312,35.6667 -33.6847,-78.684 -203.2564,89.5998 -177.3823,400.1094 29.9506,288.6532 -512.1594,488.3557 -347.8747,-240.5321 -1362.1894,802.2154 -1476.3868,-647.5968 z m 2046.8241,-74.3318 c 6.4462,-1.3825 6.5408,-1.4691 6.5408,-5.995 0,-6.2944 1.959,-12.5879 4.891,-15.7133 2.0546,-2.1901 2.563,-5.0371 3.1452,-17.6123 1.6138,-34.8514 2.0882,-68.5007 0.9814,-69.6074 -0.718,-0.718 -1.9491,0.5394 -3.2156,3.2844 -1.1286,2.4463 -3.007,6.5161 -4.1743,9.0437 -2.9986,6.494 -14.7635,17.904 -22.8777,22.1879 -19.1383,10.1039 -23.6453,14.7976 -25.4381,26.4921 -1.1653,7.6008 1.527,14.7618 10.8867,28.9569 10.9055,16.5391 16.0786,22.0325 19.8556,21.0846 1.5753,-0.3954 5.8075,-1.3501 9.405,-2.1216 z M 2963.6077,1264.491 c 7.5869,-6.8707 11.5932,-9.2141 21.695,-12.6896 9.2361,-3.1777 10.245,-4.2343 10.245,-10.7295 0,-6.3838 1.5961,-9.9439 6.0171,-13.4215 1.7161,-1.3499 5.044,-6.4231 7.3955,-11.2738 6.6499,-13.7174 10.9703,-20.735 15.1981,-24.6863 4.5594,-4.2611 4.6098,-5.0568 1.4093,-22.2581 -8.5779,-46.1012 -25.3295,-95.4278 -48.1818,-141.875 -12.135,-24.6644 -19.2322,-36.88978 -36.2835,-62.50004 -28.2151,-42.37809 -56.6722,-74.6101 -99.15,-112.30265 -4.3836,-3.8898 -8.4666,-7.07235 -9.0733,-7.07235 -0.6068,0 -0.8297,2.95313 -0.4954,6.5625 1.956,21.1162 3.3717,47.4398 2.6962,50.13124 -0.5573,2.22059 -2.7167,4.03987 -7.4565,6.28211 -8.4067,3.97705 -9.0983,4.8781 -10.1883,13.27415 -0.491,3.78125 -1.9603,10.09163 -3.265,14.02306 -2.1034,6.33765 -2.3724,11.12075 -2.3724,42.1875 0,33.37278 -0.1188,35.15838 -2.5,37.53948 -1.375,1.375 -2.9858,2.5 -3.5795,2.5 -2.1124,0 -7.4018,6.3662 -8.0743,9.718 -1.1043,5.5046 3.7072,77.5367 5.3575,80.2071 0.6883,1.1137 5.2383,0.9933 18.9138,-0.5006 9.9041,-1.0818 21.1012,-2.5027 24.8825,-3.1574 3.7812,-0.6547 13.0625,-1.7871 20.625,-2.5164 7.5625,-0.7293 18.9432,-2.4341 25.2907,-3.7884 6.7758,-1.4457 16.3237,-2.4607 23.125,-2.4584 11.5357,0 11.659,0.037 29.3872,7.9722 10.9386,4.896 21.7827,10.843 28.125,15.4239 5.6771,4.1006 12.994,9.004 16.2596,10.8966 8.6412,5.0078 7.767,8.2718 -3.9394,14.7077 -4.5391,2.4955 -5.1067,6.5756 -1.5499,11.1396 5.6765,7.2838 6.9015,11.3977 6.6568,22.3561 -0.1305,5.8437 0.4171,13.2339 1.2169,16.4226 1.1383,4.5391 1.0972,7.4789 -0.1894,13.5418 -1.7603,8.2952 -3.6931,10.0356 -11.1451,10.0356 -4.2312,0 -6.5112,2.4321 -10.0229,10.6913 -1.9948,4.6915 -5.5844,8.9896 -13.9546,16.7089 -6.198,5.7159 -12.1294,11.7054 -13.1807,13.31 -2.439,3.7223 -1.258,7.5202 3.0692,9.8698 6.0773,3.2999 9.6713,2.3989 17.0366,-4.2712 z m -158.3071,-495.37134 -0.3779,-6.5625 -6.875,-0.87909 c -9.3794,-1.19932 -11.2543,-0.46462 -11.2309,4.40083 0.032,6.72499 1.4939,7.8916 7.7255,6.16672 4.8509,-1.3427 5.5649,-1.25146 7.2554,0.92699 3.0384,3.91555 3.904,2.9141 3.5029,-4.05295 z m -183.5029,-29.70664 c 2.8362,-1.86187 0.031,-3.20656 -12.9069,-6.18842 -16.5264,-3.80869 -18.878,-3.33319 -12.6217,2.55217 2.5683,2.41618 5.0386,3.17944 12.1875,3.76578 4.9313,0.40446 9.5286,0.81772 10.2161,0.91835 0.6875,0.10062 2.0937,-0.3709 3.125,-1.04788 z m 1357.5,443.80198 c -5.0854,-1.0807 -21.1494,-6.5354 -23.4375,-7.9586 -2.2585,-1.4047 -2.0368,-17.129 0.3047,-21.6189 2.5478,-4.8849 2.3915,-6.5421 -1.3975,-14.8183 -2.727,-5.9566 -4.15,-7.5422 -8.4375,-9.4017 -2.8365,-1.2302 -7.6885,-2.6159 -10.7822,-3.0793 -3.0938,-0.4634 -7.9914,-1.7115 -10.8836,-2.7735 -6.0889,-2.2359 -12.3863,-1.4782 -16.8415,2.0262 -1.6929,1.3317 -6.1994,2.7206 -10.4394,3.2175 -4.1033,0.4808 -11.9836,2.7867 -17.5119,5.124 -11.2964,4.7761 -12.987,5.0052 -17.9596,2.4337 -4.8421,-2.504 -6.8571,-7.9751 -5.8968,-16.0109 0.4305,-3.6014 1.3159,-12.3502 1.9675,-19.4416 1.3688,-14.8937 3.663,-23.4567 8.5029,-31.7375 1.8905,-3.2346 5.356,-9.1409 7.701,-13.125 7.6519,-13.0005 17.2929,-23.643 29.1633,-32.1925 6.2437,-4.4971 12.0363,-8.1764 12.8725,-8.1764 0.8361,0 3.4275,0.7968 5.7583,1.7707 2.3309,0.974 8.4465,2.1413 13.5902,2.5941 14.5341,1.2794 35.5853,4.2149 44.7665,6.2424 4.5846,1.0125 16.349,2.4202 26.1432,3.1282 19.595,1.4165 34.297,5.5801 41.7005,11.8098 4.2435,3.5706 16.2798,7.5061 28.8979,9.4486 10.9282,1.6824 13.041,2.5538 19.7465,8.1444 7.0664,5.8914 9.3082,9.2935 12.5807,19.091 3.2163,9.6294 6.683,13.8889 15.9008,19.5367 8.531,5.227 16.4374,14.2402 19.3937,22.1084 2.5733,6.8485 9.1747,14.8881 15.3675,18.7154 3.5022,2.1644 5.638,5.2467 9.8062,14.1512 2.9308,6.2612 7.094,13.5708 9.2512,16.2434 4.3711,5.4154 4.7768,7.2505 2.0943,9.4768 -2.8918,2.3999 -30.0697,-0.4967 -43.7969,-4.6678 -10.4814,-3.1848 -12.7871,-3.4173 -33.75,-3.4032 -18.9326,0.013 -24.0855,0.4361 -32.5,2.6701 -5.5,1.4602 -12.3268,2.9967 -15.1705,3.4144 -2.8438,0.4177 -8.3853,2.4506 -12.3144,4.5174 l -7.144,3.758 -26.4355,-0.1438 c -14.5396,-0.079 -28.4044,-0.5621 -30.8106,-1.0734 z m -2736.9215,-53.0907 c -4.0865,-4.0865 -3.0622,-5.6921 3.6314,-5.6921 6.7671,0 10.7436,2.6532 8.7891,5.8642 -2.2341,3.6704 -8.6672,3.5812 -12.4205,-0.1721 z m 184.467,-1.2624 c -2.4391,-2.9389 -0.3263,-4.4297 6.2782,-4.4297 4.5908,0 6.1763,0.47 6.1763,1.831 0,4.0039 -9.6221,6.0116 -12.4545,2.5987 z m -103.8685,-33.115 c -5.5884,-1.6957 -9.1204,-3.9871 -16.2581,-10.5468 -3.8259,-3.5161 -8.9662,-7.9137 -11.4229,-9.7723 -6.2963,-4.7635 -9.746,-12.52 -9.746,-21.9131 0,-4.1954 0.3494,-8.5386 0.7765,-9.6515 1.438,-3.7474 7.2816,-5.4229 24.1502,-6.9245 9.2322,-0.8218 17.9473,-1.9597 19.367,-2.5286 1.4197,-0.5689 5.2467,-3.2719 8.5043,-6.0067 5.0025,-4.1996 7.1352,-5.1131 13.7217,-5.8776 8.9738,-1.0415 14.4082,-2.7977 25.3967,-8.2073 6.6441,-3.2709 9.7298,-3.963 20.2536,-4.5429 11.8227,-0.6515 12.5444,-0.5455 15.1226,2.2219 5.0149,5.3829 3.1179,15.0311 -6.1607,31.333 -4.5273,7.9542 -6.1319,12.0828 -6.1319,15.7775 0,4.6234 -0.8796,5.9064 -11.5625,16.8638 -7.6726,7.8699 -13.0344,12.3143 -15.9375,13.2107 -5.1358,1.5857 -41.4539,7.799 -44.6708,7.6422 -1.2123,-0.059 -3.6433,-0.5441 -5.4022,-1.0778 z m -79.302,-88.3977 c -1.375,-0.3769 -4.8315,-2.5829 -7.6812,-4.9022 -3.0632,-2.49318 -9.6028,-5.70285 -15.9979,-7.85183 -11.9048,-4.00047 -15.6959,-6.62022 -15.6959,-10.84623 0,-3.88625 4.3031,-4.68705 13.0057,-2.42034 9.1575,2.38525 17.7715,2.35392 24.6496,-0.0896 8.1193,-2.8845 12.7872,-1.55595 17.2321,4.90447 2.0271,2.9464 5.6942,6.88908 8.1492,8.76151 5.0529,3.85405 5.6189,6.84402 1.9278,10.18442 -1.9479,1.7628 -4.9174,2.37 -12.8125,2.6198 -5.6523,0.1789 -11.4019,0.017 -12.7769,-0.36 z m -193.2736,-68.98619 c -7.4656,-1.14358 -16.3953,-8.32119 -43.1468,-34.68089 -23.75653,-23.40866 -31.70461,-33.55837 -31.70461,-40.4869 0,-4.06315 0.76882,-5.34188 5.58384,-9.28745 3.07113,-2.51655 6.54444,-6.20167 7.71849,-8.18918 1.25564,-2.12563 4.24755,-4.42059 7.2658,-5.57327 2.82215,-1.07779 10.73948,-6.77974 17.59398,-12.67101 6.8546,-5.89126 14.9014,-12.42075 17.8817,-14.50998 5.5216,-3.8706 15.2062,-6.27642 15.2062,-3.77747 0,0.73363 -3.6328,4.54311 -8.0729,8.46554 -7.1993,6.35986 -8.2224,7.85163 -9.454,13.78436 -1.2125,5.8406 -1.0719,7.3517 1.1519,12.37902 1.3932,3.14949 3.6496,7.29443 5.0143,9.21099 1.3648,1.91655 3.6579,6.53244 5.096,10.25751 1.4381,3.72509 4.3715,10.82863 6.5187,15.78565 3.6405,8.40429 4.3462,9.22209 10.452,12.11308 7.8023,3.69421 10.544,7.18802 10.544,13.43656 0,5.77746 4.0388,9.32783 11.963,10.51613 6.4617,0.969 7.0979,2.63238 1.7232,4.50601 -4.9899,1.73947 -4.3847,4.9763 1.2736,6.81158 5.1246,1.6622 6.0372,3.55533 3.2165,6.6722 -3.8384,4.24141 -23.5319,7.12056 -35.8249,5.23752 z m 369.8361,-23.39581 c -4.3128,-2.33971 -4.5574,-7.0288 -0.5745,-11.01172 2.8039,-2.80383 10.483,-4.64146 20.887,-4.99827 4.3511,-0.14924 4.3771,-0.118 4.7537,5.73281 l 0.3788,5.88288 -6.2748,3.17962 c -7.0565,3.57583 -14.0062,4.01618 -19.1702,1.21468 z m -184.0625,-65.60675 c -2.75,-0.56881 -17.375,-1.0764 -32.5,-1.12795 -32.4683,-0.11063 -41.737,-1.57516 -51.2347,-8.09523 -7.9902,-5.48521 -10.4868,-6.38946 -22.5889,-8.18132 -14.647,-2.16868 -41.332,-10.80606 -43.6619,-14.13244 -1.1097,-1.58422 -1.8895,-5.43505 -1.8895,-9.33013 0,-11.68696 11.3918,-30.58802 23.125,-38.36853 8.4621,-5.61137 16.2306,-8.05493 32.3693,-10.18169 7.4907,-0.98711 17.3344,-2.36923 21.875,-3.07135 5.2302,-0.80876 11.2333,-0.86328 16.3807,-0.14875 8.0128,1.11226 17.7483,0.41674 28.75,-2.054 3.0937,-0.69479 12.9375,-1.6154 21.875,-2.0458 19.7056,-0.94899 34.9291,1.73442 48.8437,8.60955 10.8009,5.33672 12.0864,7.60419 10.9912,19.388 l -0.7954,8.55912 4.5427,4.54278 c 2.4985,2.49854 4.5428,5.1127 4.5428,5.80925 0,0.69656 -1.7584,2.22469 -3.9075,3.39584 -10.224,5.57145 -17.2976,16.0702 -17.3911,25.81229 -0.059,6.06762 -6.6862,18.02435 -11.2867,20.36115 -3.3927,1.72339 -20.2094,1.87886 -28.0397,0.25921 z m -266.92588,-87.09693 -6.55174,-7.16865 0.90523,-14.39385 c 0.49786,-7.91662 1.39353,-19.73761 1.99037,-26.26886 0.59684,-6.53125 1.94171,-27.34375 2.98863,-46.25 3.6734,-66.3383 8.46186,-97.90068 18.18306,-119.85061 10.9188,-24.65408 24.38843,-49.29581 39.87563,-72.94967 5.0685,-7.7411 14.4096,-23.35597 20.7581,-34.69972 6.3485,-11.34375 13.6907,-24.28125 16.3159,-28.75 2.6252,-4.46875 6.5537,-11.57055 8.7299,-15.78178 5.745,-11.1173 15.1262,-24.84247 19.4891,-28.5136 5.1351,-4.32086 16.2868,-7.44647 22.8369,-6.4007 2.8351,0.45265 10.0372,2.77575 16.0046,5.16246 5.9673,2.3867 14.5455,5.25147 19.0625,6.36615 4.517,1.11469 8.2127,2.43806 8.2127,2.94084 0,1.15964 -6.4856,2.47663 -12.1962,2.47663 -2.4111,0 -6.315,-1.19357 -8.6753,-2.65237 -3.991,-2.46657 -5.6016,-2.61516 -22.9917,-2.12114 -16.8735,0.47935 -18.954,0.78519 -21.2999,3.13105 -2.0312,2.03122 -2.4106,3.46123 -1.7347,6.5385 1.4989,6.82473 5.0701,8.07491 20.7092,7.24987 l 13.6886,-0.72213 0,3.54484 c 0,2.23025 1.6463,5.5153 4.4392,8.85822 6.8372,8.18356 5.9047,10.63275 -6.3142,16.58557 -5.5,2.67949 -15.625,6.2661 -22.5,7.97025 -12.9057,3.19902 -25.1727,9.10157 -32.7597,15.76307 -2.3097,2.02791 -6.3763,7.40908 -9.037,11.95818 -2.6607,4.5491 -6.5571,10.42983 -8.6586,13.06829 -5.3239,6.68424 -5.6819,8.68446 -2.7432,15.32781 1.544,3.49051 2.5735,8.47187 2.5735,12.45252 0,3.6491 0.5481,8.07647 1.2181,9.83861 0.7749,2.03824 0.7926,5.44765 0.049,9.37106 -0.846,4.46124 -0.7024,7.96819 0.5193,12.67799 1.0012,3.85962 1.2975,7.87531 0.7278,9.86181 -1.4418,5.02726 0.6551,15.5169 4.5221,22.6219 4.7913,8.80321 11.028,13.96991 21.8233,18.0793 5.0962,1.93995 13.9308,5.66577 19.6324,8.27963 17.7791,8.15061 20.2329,8.56717 50.4667,8.56717 26.7258,0 27.4671,-0.0704 38.2107,-3.62657 8.8491,-2.92914 14.832,-3.9029 31.1105,-5.06347 19.8937,-1.41831 26.7206,-1.03181 26.7206,1.51273 0,0.86021 -3.7094,1.0472 -10.9375,0.55134 -17.03,-1.16828 -34.2736,2.62327 -46.5091,10.22648 -3.1231,1.94071 -7.6472,4.2907 -10.0534,5.22222 -2.4063,0.93149 -10.5625,5.20899 -18.125,9.50553 -10.5174,5.97533 -16.3949,8.42654 -25,10.4263 -6.1875,1.43793 -14.3125,4.06213 -18.0556,5.83155 -10.5968,5.00932 -19.1721,3.8471 -36.1763,-4.90302 -12.431,-6.39685 -13.6,-7.3317 -18.5286,-14.81785 -9.7121,-14.75159 -8.4947,-13.91675 -21.7126,-14.88987 -6.4773,-0.47686 -12.4038,-0.63545 -13.1701,-0.35243 -1.9099,0.70545 -4.056,5.71267 -5.0127,11.69543 -0.4386,2.74287 -1.2356,5.25783 -1.7711,5.58879 -0.5356,0.33096 -5.3835,1.49999 -10.7734,2.59783 -13.74721,2.80015 -17.05719,4.63051 -20.79168,11.49743 -3.22813,5.93584 -4.43771,10.25588 -7.15306,25.54694 -1.38207,7.78285 -1.29548,8.80904 1.13707,13.47599 3.99351,7.66172 3.67105,20.44796 -0.75002,29.73956 -4.9497,10.4026 -4.75678,18.88852 0.61595,27.09319 3.61336,5.51795 3.98741,6.88041 3.26013,11.875 -0.45183,3.10305 -1.92051,7.82279 -3.26373,10.48831 -2.45587,4.8735 -2.54607,11.20075 -0.30957,21.71609 0.82432,3.87567 0.69084,4.0625 -2.9024,4.0625 -2.98913,0 -5.11857,-1.47945 -10.31817,-7.16864 z"
         id="path4231"
         inkscape:connector-curvature="0"
         sodipodi:nodetypes="ccsccsscscccssccccssssccscsscsccsscsscsssssscsscccssscssssscssscscsssssscccscssscsssssssssssscccssssccscscscssssccsccscsssscscccscsssscsssssccssscscsssscsscssscscsscsssssssscccsscssscscsssscsssssssccccscsccsssccsscssssscscsscssssssssssscsccssscccsscsccscsscccscsssscscscssssscccccsscssssscsssscssscscsssssscscccsssscssssccsccsscsssssscssssccscscccccssccsscssscsscccccssscccsssccssssssssssscccccscscccsssccccssscsssscssccscscccccscccccssscccssccsscscscscsssscssscscssscscsssscsscsssscssscssssssccsccssssccsccssssssscsssccsssssssssscscccssssscssssssssccsssccsccsssssssssssssscsscscsssssssssccssssssssssscsssssscscsssssssssscc" />
      <g
         id="g4283">
        <g
           id="g4286" />
      </g>
    </g>
  </g>
  <g
     inkscape:groupmode="layer"
     id="layer4"
     inkscape:label="ringe"
     style="display:inline">
    <path
       style="display:inline;fill:#fc0c5c"
       d="m 1930.5428,1825.2948 c 4.2015,-0.8401 4.5409,-1.3329 8.5596,-12.4315 15.7773,-43.5713 22.9034,-60.5031 40.1121,-95.3066 8.1585,-16.5 19.7503,-38.4375 25.7595,-48.75 6.0093,-10.3125 12.0708,-20.7609 13.4702,-23.2187 l 2.5441,-4.4687 -7.52,-9.9063 c -51.1021,-67.3183 -90.8653,-153.5288 -105.464,-228.6563 -2.0039,-10.3125 -4.4688,-22.6875 -5.4774,-27.5 -7.7355,-36.9075 -10.5817,-79.1963 -8.4554,-125.625 0.7715,-16.8438 2.1994,-35.4063 3.1733,-41.25 0.9739,-5.8438 2.4257,-15.4063 3.2264,-21.25 0.8007,-5.8438 2.235,-14 3.1873,-18.125 0.9524,-4.125 2.6542,-12.2813 3.7817,-18.125 1.1276,-5.8438 3.4571,-15.4063 5.1766,-21.25 1.7196,-5.8438 3.8907,-13.4732 4.8246,-16.9543 2.5026,-9.3279 10.4044,-33.0682 12.5181,-37.6097 1.0083,-2.1664 1.8333,-4.5445 1.8333,-5.2848 0,-0.7402 1.3852,-4.3114 3.0782,-7.9361 1.693,-3.6246 5.9882,-13.3401 9.5447,-21.5901 45.524,-105.6022 129.6596,-201.43348 230.3756,-262.39995 16.8287,-10.18699 48.9377,-27.49816 53.7952,-29.00316 1.4198,-0.43984 6.2943,-2.65953 10.8323,-4.93263 14.2862,-7.1559 53.0499,-21.38662 77.999,-28.63459 16.073,-4.66936 19.0767,-5.45401 28.75,-7.5102 5.5,-1.1691 11.6875,-2.61313 13.75,-3.20897 7.6527,-2.21079 50.5755,-8.56586 67.5,-9.99394 21.0695,-1.77782 94.9261,-0.9744 110.625,1.2034 12.2167,1.69474 30.5554,4.72299 38.75,6.39874 14.715,3.00912 25.3907,5.39242 36.6126,8.17347 14.6883,3.64015 15.8874,3.69498 15.8874,0.72653 0,-3.04471 -3.8733,-6.44374 -7.3428,-6.44374 -1.524,0 -4.1516,-1.38069 -5.8391,-3.06819 -2.842,-2.84206 -3.0681,-3.97516 -3.0681,-15.375 0,-7.9053 0.5365,-12.84328 1.5,-13.80681 0.9937,-0.9938 6.583,-1.51902 16.5625,-1.55637 9.0002,-0.0336 16.3684,-0.66257 18.307,-1.5625 3.052,-1.41675 31.6644,-31.01112 43.318,-44.80467 4.5946,-5.43837 5.3125,-7.07713 5.3125,-12.128 0,-3.21197 -0.5341,-7.70237 -1.187,-9.97865 -0.8126,-2.83353 -0.7318,-5.19607 0.2565,-7.49175 2.2415,-5.20716 3.4956,-27.87602 4.4386,-80.22806 0.7486,-41.55919 1.1226,-48.125 2.7419,-48.125 1.628,0 1.9181,6.25155 2.2027,47.45279 0.2013,29.11964 0.8049,47.92981 1.5625,48.6875 0.6792,0.67909 1.2348,6.80105 1.2348,13.60435 0,9.39671 0.5106,13.234 2.1245,15.96605 1.8895,3.19879 1.9534,4.61402 0.5779,12.80022 -1.897,11.29012 -1.2212,13.27429 7.32,21.48909 3.574,3.4375 9.8986,10.1875 14.0547,15 4.156,4.8125 13.413,14.23438 20.571,20.9375 13.8058,12.92816 16.8106,14.28965 21.0956,9.55816 2.2232,-2.45471 2.4063,-5.36556 2.7575,-43.83291 0.2862,-31.33509 0.7352,-41.08412 1.875,-40.70475 1.1167,0.37166 1.6582,12.99183 2.1238,49.50439 0.6922,54.28307 0.1741,51.35732 9.1017,51.39347 5.2665,0.0214 6.6529,1.8422 5.3513,7.02848 -0.6021,2.39904 -2.4419,3.94039 -7.0035,5.86761 -3.4028,1.43763 -6.4876,3.56151 -6.8553,4.71976 -1.2428,3.91615 1.6558,42.4709 3.3463,44.50784 1.3217,1.59253 4.223,1.8496 16.6426,1.47461 l 15.0469,-0.45416 0,26.65365 0,26.65364 10.625,8.15981 c 21.1491,16.24211 37.8296,30.90961 59.1576,52.01854 38.055,37.66396 68.0056,76.80986 96.3181,125.88936 2.5779,4.46875 5.1794,8.96875 5.7812,10.00004 5.4408,9.3245 23.005,46.414 26.7968,56.5861 1.597,4.2839 5.7357,15.1803 9.197,24.2143 15.4013,40.197 30.0075,102.838 34.0607,146.0746 2.1738,23.1892 2.8721,69.3831 1.3013,86.0902 -0.8987,9.5586 -1.0397,16.584 -0.3572,17.8035 0.6201,1.108 12.8819,8.026 27.2484,15.3735 28.7443,14.7007 45.9098,24.3785 68.6211,38.6882 86.6029,54.5658 158.5806,120.7371 220.5876,202.7927 53.9963,71.4545 97.61,154.9646 125.1143,239.5644 l 6.6037,20.3125 -33.0528,523.9592 c -65.3702,254.2403 -418.2665,430.7033 -683.6252,429.1301 -463.2098,0.3473 -840.1999,-409.6786 -861.2576,-975.9762 z m 1396.0399,450.2274 -0.41,-24.215 -4.6875,-9.3862 c -4.9888,-9.9891 -5.6291,-12.9818 -3.125,-14.6026 0.8594,-0.5561 11.6875,-1.2925 24.0625,-1.6362 l 22.5,-0.625 0.3514,-32.5 c 0.366,-33.8493 0.066,-38.125 -2.6745,-38.125 -1.852,0 -4.5519,-5.1488 -4.5519,-8.6805 0,-1.8619 1.5434,-2.5817 7.9149,-3.6912 4.3532,-0.7581 10.209,-1.3783 13.0127,-1.3783 l 5.098,0 1.024,-10.9375 c 1.4786,-15.7934 1.0876,-71.537 -0.6555,-93.4375 -10.6611,-133.9445 -62.2154,-264.4678 -145.6495,-368.75 -24.1861,-30.2297 -62.7607,-70.0067 -90.1445,-92.9542 -28.9686,-24.2755 -65.7249,-50.0937 -97.9746,-68.8188 -20.9951,-12.1903 -26.8984,-15.074 -28.6468,-13.9934 -0.8157,0.5042 -3.4833,5.9454 -5.928,12.0915 -2.4446,6.1462 -9.5148,21.4467 -15.7117,34.0012 -6.1969,12.5545 -11.0863,23.7424 -10.8655,24.862 0.2209,1.1195 3.214,3.504 6.6515,5.2987 17.3516,9.059 64.9832,39.4615 76.875,49.0682 2.4062,1.9439 10.2812,8.2368 17.5,13.9843 14.73,11.7278 37.849,33.4457 57.5,54.0152 51.4757,53.8818 92.9881,120.3475 120.5855,193.0703 3.2612,8.5937 6.4369,16.75 7.057,18.125 1.6877,3.7423 12.0495,39.0708 14.8482,50.625 7.7562,32.0206 13.9507,70.6177 16.2499,101.25 3.1716,42.2528 -9e-4,97.5456 -7.9966,139.375 -3.4161,17.8713 -7.2138,35.1241 -8.6213,39.1673 l -1.4508,4.1674 10.7512,10.2076 10.7514,10.2077 2.7876,11.875 c 4.3878,18.6915 11.3118,39.2261 12.7438,37.7941 0.7627,-0.7628 1.0815,-10.5493 0.8291,-25.4541 z m -54.2353,-75.4877 c 8.2517,-41.1662 10.0782,-62.0643 10.0495,-114.9773 -0.023,-42.0655 -0.3451,-49.8598 -2.8166,-68.125 -7.9412,-58.6865 -19.1537,-100.4633 -40.9295,-152.5 -14.496,-34.6404 -28.8614,-61.3813 -50.0275,-93.125 -41.1299,-61.6845 -93.5085,-113.902 -155.7255,-155.2467 -17.8617,-11.8696 -50.109,-30.2568 -54.46,-31.053 -3.3101,-0.6056 -4.0435,0.1792 -12.5739,13.4533 -27.8523,43.3414 -60.5338,81.0444 -106.3857,122.732 l -6.6946,6.0866 12.02,187.6389 c 9.6653,150.8801 12.8861,194.9615 16.4408,225.0182 2.4314,20.5587 4.9765,38.418 5.656,39.6875 0.6794,1.2695 2.2019,2.3082 3.3834,2.3082 1.1814,0 30.8314,-28.6875 65.8889,-63.75 l 63.7407,-63.75 11.8797,-0.019 c 6.5337,-0.012 12.578,-0.4626 13.4315,-1.0047 1.0881,-0.691 1.6201,-5.9333 1.7801,-17.5395 0.1501,-10.8928 0.7599,-17.282 1.7831,-18.6828 1.2415,-1.6997 4.0324,-2.2116 13.8449,-2.5396 6.7595,-0.226 13.8369,0.182 15.7275,0.9065 3.4306,1.3147 3.4377,1.3431 3.547,14.1607 0.06,7.064 0.4821,15.596 0.9375,18.9602 0.8062,5.9561 0.9756,6.1606 6.453,7.7935 3.0937,0.9222 7.3125,1.7108 9.375,1.7522 2.0625,0.041 5.2601,0.7531 7.1057,1.5815 3.2903,1.4768 32.4842,27.9571 60.9965,55.327 7.9188,7.6014 25.8282,24.7576 39.7985,38.125 13.9704,13.3673 33.6579,32.2503 43.75,41.962 11.27,10.8454 18.6724,17.106 19.1867,16.2274 0.4606,-0.7869 1.7373,-5.9204 2.8373,-11.4079 z m -730.4565,-137.5102 c 12.3392,-4.3535 13.4253,-7.2105 15.5852,-40.9933 3.0426,-47.5922 8.3921,-162.1951 7.6076,-162.9795 -0.4111,-0.4112 -10.7406,0.5082 -22.9543,2.0428 -14.0548,1.7661 -32.8538,3.0521 -51.2108,3.5035 l -29.0043,0.7131 3.6706,5.1231 c 4.5663,6.3733 6.3838,15.4607 4.7744,23.8732 -1.3405,7.0076 -3.2924,85.0661 -2.2972,91.875 0.575,3.9348 1.0775,4.4167 4.995,4.7896 7.5931,0.7229 7.4906,0.2807 7.4906,32.3005 0,32.3959 0.3694,34.2504 7.7659,38.9865 3.7755,2.4176 5.8978,2.633 26.1395,2.6524 16.6,0.016 23.3632,-0.4493 27.4378,-1.8869 z m 1.1568,-226.0421 c 24.8529,-3.0595 23.4929,-2.499 24.2724,-10.0043 0.3667,-3.5314 1.8223,-29.4832 3.2348,-57.6707 5.7365,-114.4802 12.5479,-222.3009 14.3917,-227.8125 0.2875,-0.8594 0.2235,-1.5625 -0.142,-1.5625 -2.2144,0 -41.6422,12.0355 -51.6345,15.7617 -59.3234,22.1216 -100.9407,44.4581 -147.6224,79.2305 -26.2441,19.5488 -55.924,46.5239 -75.506,68.6251 -22.6451,25.5585 -40.6845,48.1858 -39.3673,49.3793 0.2742,0.2484 5.946,3.0886 12.6043,6.3117 19.6465,9.5105 26.019,18.9339 26.019,38.4754 0,7.4429 0.4066,8.9865 3.0681,11.6481 1.6875,1.6875 4.1938,3.0682 5.5693,3.0682 1.3756,0 7.448,1.3327 13.4943,2.9616 13.6805,3.6856 32.933,7.9966 40.3683,9.0392 6.1245,0.8589 21.9497,5.4707 31.875,9.289 3.4375,1.3225 13.5625,3.2243 22.5,4.2264 21.585,2.4199 94.2487,1.8193 116.875,-0.9662 z m -261.0443,-134.5049 c 40.2834,-46.7465 87.6167,-86.9403 139.0428,-118.07 16.8287,-10.187 48.9377,-27.4983 53.7952,-29.0033 1.4198,-0.4397 6.2943,-2.6595 10.8323,-4.9326 14.3072,-7.1664 53.2606,-21.4634 77.999,-28.6278 4.125,-1.1946 9.9909,-2.9571 13.0351,-3.9167 3.0444,-0.9596 6.5255,-1.7447 7.736,-1.7447 2.6058,0 2.7705,-1.0181 5.4628,-33.75 1.0461,-12.7188 2.1848,-25.6242 2.5307,-28.6787 0.3458,-3.0545 0.2581,-9.9962 -0.1946,-15.426 l -0.8234,-9.8725 -5.6277,0.844 c -8.2132,1.2316 -46.3418,10.9417 -64.2024,16.3502 -31.9325,9.6697 -68.1818,24.3176 -102.4525,41.3998 -63.7474,31.7748 -117.0625,69.8555 -170.2935,121.6332 l -17.3486,16.875 0.7956,45.625 c 1.2266,70.3487 1.4177,71.6527 10.7876,73.6058 4.3386,0.9045 4.3591,0.887 14.3449,-12.2423 5.5,-7.2315 16.5614,-20.7623 24.5807,-30.0684 z m 596.2498,-28.5344 c 15.918,-16.476 33.786,-37.2361 46.2549,-53.7415 13.4527,-17.8077 29.9231,-43.0281 29.5078,-45.1844 -0.4776,-2.4797 -22.9391,-12.2842 -47.8347,-20.8798 -20.5359,-7.0904 -59.1166,-17.955 -63.7589,-17.955 -2.5122,0 -2.5686,0.3783 -1.6291,10.9375 1.2534,14.0878 9.7545,144.1177 9.7545,149.202 l 0,3.8578 7.2307,-6.2641 c 3.9769,-3.4452 13.1905,-12.4329 20.4748,-19.9725 z m -830.8733,-70.5915 c 25.8248,-36.0554 50.2189,-65.173 80.9492,-96.6238 l 20.9063,-21.3965 0.3437,-21.137 c 0.3372,-20.7474 0.3946,-21.1442 3.112,-21.5306 3.6006,-0.512 4.0388,1.5076 4.425,20.3937 l 0.3066,15 7.5,-6.9258 c 37.3227,-34.4649 87.1691,-70.9498 135.625,-99.2704 87.727,-51.2731 187.9384,-87.2957 285.625,-102.6726 7.5625,-1.1905 13.9911,-2.3606 14.2859,-2.6004 1.0153,-0.826 2.574,-21.0993 3.731,-48.5308 0.638,-15.125 1.8665,-36.5 2.7298,-47.5 0.8635,-11 1.5708,-21.6875 1.5718,-23.75 9e-4,-2.0625 2.6767,-49.9865 5.9462,-106.4977 4.5097,-77.94548 5.6288,-103.89125 4.6364,-107.48536 -1.8867,-6.83339 -7.9465,-11.91227 -18.0287,-15.11053 -4.7423,-1.50435 -10.1425,-3.03085 -12.0005,-3.39224 -1.858,-0.36138 -4.9215,-1.98455 -6.8078,-3.60705 -3.388,-2.91418 -3.4419,-3.19847 -4.4451,-23.42857 -0.5586,-11.26323 -1.5234,-27.21809 -2.144,-35.45526 -0.7025,-9.3237 -0.6819,-15.81115 0.055,-17.1875 1.015,-1.89652 3.0284,-2.21083 14.162,-2.21083 7.1384,0 13.8685,-0.34142 14.956,-0.75874 1.2756,-0.4895 1.9772,-2.29287 1.9772,-5.08217 0,-5.03474 -1.55,-8.43819 -6.03,-13.24076 -3.0697,-3.29082 -3.2741,-4.40037 -4.2587,-23.125 -0.5689,-10.81758 -0.8773,-26.13708 -0.6853,-34.04333 l 0.349,-14.375 12.2264,-0.1937 c 13.5584,-0.2148 15.8984,-0.72731 15.8984,-3.48215 0,-3.02091 -16.2551,-7.04962 -50,-12.39212 -48.4071,-7.66384 -63.2758,-8.74533 -109.375,-7.95557 -40.2978,0.69038 -64.4316,3.15904 -101.875,10.42086 -54.1246,10.49702 -120.6065,35.65129 -168.4,63.7164 -60.5119,35.53353 -106.6755,75.09745 -152.8693,131.01458 -26.7912,32.43048 -58.8925,84.33824 -73.1273,118.24674 -2.4532,5.8437 -5.0393,11.6666 -5.7469,12.9397 -2.0269,3.6465 -13.5405,34.029 -17.597,46.4353 -6.1525,18.8161 -11.9104,40.4262 -15.1543,56.875 -6.3727,32.315 -7.7023,41.3517 -10.9427,74.375 -1.9394,19.7638 -1.5996,80.1122 0.5454,96.875 1.0116,7.9062 2.2072,18.3125 2.6567,23.125 1.216,13.0189 4.2516,29.7413 5.6536,31.1432 0.6775,0.6775 1.2432,3.7911 1.2572,6.9193 0.021,4.6285 3.6487,21.0344 9.4125,42.5625 3.6876,13.7734 9.6571,31.0046 19.4871,56.25 4.3309,11.1225 4.0685,10.5159 12.4334,28.75 13.2397,28.8605 24.1753,48.303 42.8873,76.25 14.3663,21.4563 18.3013,26.4252 20.5762,25.982 1.0076,-0.1964 6.9747,-7.5372 13.2603,-16.3128 z m 930.092,-69.2405 c 4.8599,-9.7329 12.1462,-25.3612 16.1917,-34.7296 7.2538,-16.7979 7.322,-17.0653 4.9322,-19.3448 -6.885,-6.5676 -69.8626,-30.0602 -109.073,-40.6877 -21.8252,-5.9155 -57.7099,-13.5986 -58.7332,-12.5751 -0.3279,0.3278 0.9022,17.6256 2.7335,38.4397 1.8312,20.8141 3.3172,39.6025 3.3021,41.7522 l -0.028,3.9084 12.1875,2.6911 c 18.7224,4.134 50.096,13.4716 73.4375,21.8568 10.6012,3.8084 34.3877,13.663 37.6459,15.5965 1.2947,0.7685 3.752,1.2603 5.4606,1.0929 2.6594,-0.2604 4.378,-2.8509 11.9427,-18.0004 z m 58.1699,-214.3547 c 1.0338,-1.9315 1.2565,-14.8855 0.8008,-46.5625 -0.5717,-39.7295 -0.9909,-46.5506 -4.4269,-72.0115 -6.4516,-47.808 -14.0329,-78.0335 -30.318,-120.8737 -7.8971,-20.7743 -7.5169,-19.8734 -18.6243,-44.1263 -13.6895,-29.8911 -33.8837,-63.79733 -55.4642,-93.12504 -21.7213,-29.51879 -53.9786,-64.28143 -82.6865,-89.10834 -13.0355,-11.27321 -13.7703,-11.7224 -14.1393,-8.64405 -0.2141,1.78591 0.1688,5.26793 0.8508,7.73781 0.6819,2.4699 0.9789,6.29609 0.6599,8.50266 -0.3192,2.20656 0.1717,11.79033 1.0907,21.29728 1.1979,12.3929 1.2948,18.05371 0.3421,20 -1.8355,3.75019 -16.0346,10.63607 -24.8728,12.06212 -4.4724,0.72161 -8.9297,2.40961 -11.461,4.34038 -6.4638,4.93009 -7.2447,9.09898 -5.689,30.37187 1.8407,25.17177 4.7013,76.36641 4.9068,87.81531 0.2914,16.2255 4.005,67.9559 5.1599,71.875 0.6078,2.0625 4.0318,37.7812 7.6088,79.375 3.577,41.5937 6.5831,75.733 6.6801,75.865 0.098,0.132 10.2871,1.7052 22.6447,3.496 40.6168,5.8859 92.6004,18.1948 133.7183,31.6625 18.5335,6.0704 54.367,19.3515 58.0816,21.5269 2.8511,1.6698 3.5633,1.4651 5.1375,-1.4764 z M 2602.4713,865.15841 c 1.3135,-2.00471 2.0605,-6.32265 2.2163,-12.8125 l 0.2351,-9.78875 -10.3125,-0.36305 -10.3125,-0.36305 0,4.23901 c 0,5.91855 2.2596,11.92979 6.55,17.42459 4.3527,5.5747 8.6574,6.19082 11.6236,1.66375 z m 212.2675,-6.79531 c 3.0881,-5.30236 4.6963,-13.83851 3.151,-16.72594 -0.951,-1.77685 -2.8409,-2.205 -9.733,-2.205 -11.799,0 -12.5671,1.16057 -8.2484,12.46266 4.7208,12.35425 10.0489,14.67807 14.8304,6.46828 z m 0.7915,-27.36844 c -0.012,-0.51562 -4.369,-4.14871 -9.6875,-8.07354 -8.6675,-6.39618 -9.8321,-6.9222 -11.2326,-5.07358 -2.1028,2.7756 -1.9693,6.69763 0.3402,9.99493 1.4942,2.13315 3.4405,2.81328 9.0625,3.16678 3.9379,0.24761 8.1442,0.55656 9.3473,0.68656 1.2031,0.12999 2.1796,-0.18552 2.1701,-0.70115 z m -8.9922,-59.9835 -0.3654,-9.704 -9.2725,-0.35908 c -6.5283,-0.25281 -9.5745,0.11713 -10.2933,1.25 -1.5907,2.50719 -1.2383,7.76133 0.6983,10.40977 1.5844,2.1668 2.2922,2.25773 7.1875,0.92341 4.6977,-1.28051 5.6407,-1.20306 6.9925,0.5743 0.8594,1.12994 1.5625,3.54066 1.5625,5.35718 0,1.81652 0.3907,3.69347 0.8682,4.17102 1.8788,1.87872 2.9703,-3.37586 2.6222,-12.6226 z"
       id="path4225"
       inkscape:connector-curvature="0"
       sodipodi:nodetypes="ccssccsscsssccccssssscsssssssssssscssssccssscscsssscscscsscsccccsssccssssssssccccscccscssscscsssssccscscsssssssccccscscssssscsscsscsscccsssccscccssscccssccscscccscssscsssssscsscsscccssscsscssccccssscscssssssssscsssscssscssccsccscssssscssscsscsssssssscssscsccsssscscscscsccsscccccsssssscccscscscsscssccsccccsssscssscsscsscscscsssscs"
       transform="translate(-8.4578964,-204.52222)" />
  </g>
  <g
     inkscape:groupmode="layer"
     id="layer5"
     inkscape:label="pfeil"
     style="display:inline">
    <path
       style="display:inline;fill:#fcc304"
       d="m 2287.0477,1254.1822 c -1.1431,-1.1431 -1.5,-26.7223 -1.5,-107.5 0,-58.3 -0.413,-106 -0.9178,-106 -0.5047,0 -24.3542,23.412 -52.999,52.0266 -30.2536,30.222 -52.6578,51.6703 -53.4572,51.1763 -0.9763,-0.6034 -1.376,-22.3307 -1.376,-74.7911 l 0,-73.9406 37.1875,-37.32763 c 20.4531,-20.53019 57.3284,-57.07265 81.945,-81.20545 l 44.7576,-43.87782 81.1799,81.14427 81.18,81.14429 0,74.00174 c 0,40.701 -0.447,74.278 -0.9933,74.6157 -0.5462,0.3376 -24.6626,-22.6691 -53.5918,-51.126 -28.9293,-28.4569 -52.9512,-51.3875 -53.3818,-50.9568 -0.4307,0.4307 -0.7831,48.4417 -0.7831,106.6911 0,95.421 -0.1958,105.983 -1.9773,106.6666 -1.0875,0.4173 -24.8812,0.7588 -52.875,0.7588 -37.9205,0 -51.2802,-0.3825 -52.3977,-1.5 z"
       id="path4227"
       inkscape:connector-curvature="0"
       sodipodi:nodetypes="sssscscsscccscscssss"
       transform="translate(-8.4578964,-204.52222)" />
  </g>
  <g
     inkscape:groupmode="layer"
     id="layer3"
     inkscape:label="stadt grau"
     style="display:inline"
     sodipodi:insensitive="true" />
  <g
     inkscape:groupmode="layer"
     id="layer1"
     inkscape:label="stadt"
     style="display:inline">
    <path
       style="display:inline;fill:#000000"
       d="m 2694.8448,262.5852 c -2.9122,4.06681 -1.1732,10.17011 -2.0236,14.97789 -1.0254,38.34318 -0.8897,76.68163 -3.7498,114.8268 -0.6876,7.37751 0.7942,15.38728 -0.701,22.32139 -15.6819,17.14373 -31.5786,34.0421 -47.758,50.73525 -11.6777,-0.0125 -23.3555,-0.0252 -35.0332,-0.0391 -2.6345,9.20555 -2.048,19.2104 -0.3223,28.51367 1.7993,5.18771 7.6038,6.25709 12.1582,7.52344 5.0278,3.39274 0.3886,10.47715 0.6093,15.2385 -1.8109,5.87804 -0.1229,12.78962 -3.5428,18.00564 -5.725,3.21537 -12.9785,0.25572 -19.336,0.75195 -4.6109,-1.00759 -8.5007,2.93585 -7.7187,7.51563 -0.2163,19.60631 0.9507,39.2429 1.7422,58.78906 1.4393,6.73206 9.6601,9.97226 9.2675,17.53515 1.5716,4.24175 -1.1365,8.30524 -5.8222,7.86133 -8.1381,1.42489 -16.9066,-0.66595 -24.8125,2.24805 -2.1696,5.32194 0.1496,11.82688 -0.216,17.51903 1.4251,17.64452 2.0001,35.31653 2.9367,52.95558 1.8415,6.09121 8.6157,9.72136 14.6953,10.00781 10.3688,3.01996 24.3599,7.60388 25.9433,20.09961 0.8333,21.16419 -1.8133,42.3405 -2.5182,63.49791 -4.1742,73.09595 -8.5743,146.18385 -12.6639,219.28071 -0.6015,29.6462 -4.6722,59.1144 -5.8768,88.8293 -2.8852,50.7425 -6.3369,101.6382 -6.8763,152.3809 -1.1442,33.2698 -6.6817,66.3199 -8.2364,99.6444 -7.2034,95.5973 -11.0997,191.4116 -17.0107,287.0919 -3.6457,64.3345 -5.0513,128.8509 -10.0701,193.0469 -0.536,8.8991 -2.2759,20.0745 -12.0098,23.5372 -9.9662,4.4612 -21.4446,1.6238 -31.9975,2.5009 -8.8187,-0.842 -19.0074,1.9097 -26.4063,-3.9331 -8.0216,-6.9031 -5.3189,-18.3662 -5.9004,-27.8027 -0.018,-13.7956 -0.01,-27.5912 -0.01,-41.3868 -3.3309,-0.7469 -9.8071,1.6151 -11.7539,-2.1132 -1.5326,-24.0908 -0.5233,-48.3997 -0.092,-72.4844 -0.09,-14.9087 6.2842,-31.9564 -3.086,-45.5528 -14.2747,-21.5665 -39.9927,-30.6846 -63.5477,-38.0618 -14.8548,-5.0706 -30.1308,-8.7075 -45.5421,-11.4928 -14.4592,-4.2685 -30.0611,-5.2881 -43.6231,-11.7911 -6.1782,-7.4313 -1.8621,-18.0454 -5.4746,-26.5566 -3.3903,-13.6387 -16.762,-20.4734 -28.3593,-26.1328 -11.6865,-5.6039 -23.9362,-10.7368 -36.7754,-12.582 -4.6204,-2.698 -9.9719,-6.3632 -8.3196,-12.5055 -1.1756,-39.4121 -2.4209,-78.9027 -1.2879,-118.2563 0.9371,-10.873 -8.1374,-19.0345 -16.4277,-24.4277 -13.4647,-6.3984 -28.1885,-9.4722 -42.3008,-13.9512 -11.1384,-4.9465 -11.0304,-19.2326 -11.709,-29.58 0.085,-13.5323 -4.3713,-26.5456 -4.1207,-40.0343 -1.09,-20.3905 -0.4303,-40.9674 -2.4086,-61.3017 -1.5229,-3.3866 -5.8427,-1.0998 -5.5,2.0977 -2.6728,25.7497 0.5015,51.8848 -2.4589,77.5312 -4.7613,13.7469 -0.5298,29.0766 -5.8204,42.6055 -6.3927,10.9403 -19.5232,14.2921 -31.2031,15.8867 -11.3822,3.3724 -23.1232,7.1103 -32.9023,14 -6.2,5.137 -8.4946,13.464 -7.1119,21.2425 2.8719,40.962 1.8502,82.0775 2.0787,123.1228 -12.3969,7.1794 -27.4817,7.6385 -40.586,13.5585 -12.2452,5.2657 -26.5092,11.4614 -32.2031,24.4161 -1.5762,10.0828 0.5998,20.3811 0.5957,30.5234 -9.7519,5.5692 -21.6834,5.4819 -32.4275,8.1208 -16.3909,2.4704 -32.2665,8.2641 -48.7951,9.5081 -14.654,-3.8552 -30.1573,-2.2869 -45.1719,-3.0918 -12.2934,0.5807 -25.606,-1.7402 -37.1445,3.5352 -9.8022,6.509 -6.9351,20.2116 -12.3223,29.2636 -2.1594,1.4942 -5.4998,1.177 -7.4512,3.4649 -4.4046,2.6479 -6.8743,10.6922 -0.7676,12.9023 2.9138,1.3619 8.3474,1.4122 6.8008,5.9883 -0.028,13.7099 -1.7644,27.5159 -2.4961,41.2344 1.7467,15.6022 3.5235,31.1612 3.0732,46.8867 -0.1202,74.7362 -0.2475,149.5847 -1.909,224.2445 -0.7406,10.1085 -2.2858,20.5142 -2.021,30.9154 -1.1104,66.7202 -1.0303,133.4537 -1.5416,200.1799 -2.0465,1.9281 -7.3095,2.6686 -6.4356,-1.707 -1.0813,-30.8475 1.8081,-61.812 -0.3593,-92.6133 -2.472,-27.4224 -1.1116,-55.1822 -1.7047,-82.7573 -1.0217,-8.6377 -10.2918,-15.2403 -8.1332,-24.6548 -0.5382,-20.6968 1.1279,-41.5613 -1.2031,-62.1621 -0.6722,-3.3411 -3.0533,-6.4219 -5.7422,-7.9883 -3.2351,-18.0907 1.3388,-36.7231 -1.459,-54.8593 -3.1949,-9.6246 -11.8992,-16.1266 -17.6446,-24.1856 -4.0558,-3.963 -0.9952,-10.6359 -2.2002,-15.7028 -0.4908,-34.289 -2.1924,-68.6145 -1.5771,-102.8909 1.0987,-3.7267 1.6624,-9.0705 -2.9629,-10.6153 -6.8905,-7.1855 -5.4273,-18.4819 -7.1367,-27.6152 -0.3979,-6.6968 -6.4406,-11.6765 -5.0469,-18.6758 -0.6457,-3.6756 5.3967,-5.8949 2.1992,-9.457 -4.096,-6.7176 -2.3413,-15.3598 -3.4961,-23 -0.8852,-4.2613 0.9212,-12.0508 -4.7851,-13.3731 -2.3222,-0.7481 -7.0894,0.025 -6.7051,-3.5918 -0.8829,-3.034 -4.5808,-4.826 -2.9883,-8.4433 1.6103,-6.3037 -3.7739,-11.4983 -2.6504,-17.8301 0.4701,-4.1118 -1.5852,-7.7266 -2.6015,-11.418 1.0314,-3.9705 0.4062,-8.1487 -2.3867,-11.2246 -0.655,-5.1366 1.493,-10.7803 -1.4063,-15.4902 -1.1087,-5.5092 1.0879,-12.0002 -2.373,-16.7793 -3.0562,-24.9192 -7.895,-49.6007 -10.6348,-74.5156 -4.4223,-13.2606 -2.4337,-27.709 -6.8731,-40.9727 -1.9955,-12.8855 -0.7321,-26.1272 -4.5389,-38.7655 -5.7238,-25.7878 -8.093,-52.1572 -13.6214,-78.0141 -1.0495,-11.5048 -5.6196,-22.2485 -6.5506,-33.7145 -1.7019,-13.0003 -5.8337,-25.5052 -7.4082,-38.5661 -1.765,-7.6331 -2.1766,-15.4282 -2.8047,-23.1507 -4.1783,-11.7889 -1.5431,-24.5819 -4.5699,-36.569 -0.7111,-15.5092 -1.5724,-31.185 -0.5922,-46.683 0.9709,-3.0291 5.3412,-6.1188 1.8672,-9.2773 -5.9631,-5.4156 -2.3647,-14.5786 -3.3516,-21.5782 -0.1855,-21.8056 1.0566,-43.7485 -1.0234,-65.4707 -0.652,-3.3868 -5.2023,-1.7623 -4.6367,1.3223 -1.9821,27.2409 0.48,54.6745 -1.8985,81.8711 -1.253,3.1723 -4.3608,7.3332 -0.4453,10.0625 2.631,6.7143 0.5756,14.6144 1.0108,21.7372 -0.9449,15.9026 0.1815,32.0119 -2.9268,47.6124 -2.5014,5.8037 -0.6753,12.5109 -3.1914,18.2266 -0.9851,5.8405 2.322,12.7223 -2.125,17.5332 -2.5143,5.9546 0.256,13.1361 -3.5117,18.5527 -0.5389,14.7909 -2.7887,29.4292 -4.7129,44.1094 -3.3683,5.9721 0.1276,13.7851 -4.0586,19.3398 -2.3896,10.7752 -0.5406,22.2556 -4.3652,32.6348 -0.1148,5.0875 1.0765,10.4198 -1.9336,14.9453 -1.5501,4.5649 1.2526,9.9806 -2.6836,13.7031 -2.2101,5.5946 1.839,12.1159 -2.3242,17.211 -2.2,4.4067 1.6876,10.1287 -2.4942,13.5957 -2.1966,4.2467 -0.9252,9.3132 -3.2793,13.4883 -1.8831,13.2412 -3.3344,26.3147 -6.6054,39.2968 -0.9348,6.9377 -1.5935,13.9041 -3.6758,20.584 -1.0476,4.7284 3.4705,10.9733 -1.4844,14.1563 -2.8694,4.0226 -0.3816,8.9609 0.4922,12.9746 -3.2936,3.9425 -4.8319,9.0619 -3.5859,14.1172 1.4836,4.1034 -0.4922,7.3922 -2.6446,10.5468 -1.3589,4.3932 4.1985,9.0999 -0.2637,12.7364 -4.5836,5.9308 0.3917,13.9853 -3.3261,20.0254 -0.7958,4.9925 1.8283,10.5465 -1.5821,14.9043 -1.9633,5.7851 1.0013,12.3837 -2.33,17.6914 -1.3111,4.6816 0.4595,10.1461 -2.6836,14.1269 -1.254,4.6005 -0.8313,9.4476 -1.0567,14.1563 -3.4934,0.5139 -9.3287,0.7448 -11.3437,-1.7246 3.6391,-3.9312 -3.5519,-9.842 -5.2617,-4.0567 -0.8361,2.2975 2.1751,4.4025 2.3261,5.4649 -2.9934,5.316 0.5493,12.3601 -3.9277,17.0429 -2.1385,7.0596 1.6612,14.8761 -0.9414,21.5899 -4.5567,5.372 -0.8617,13.3337 -1.6016,19.6172 0.7874,4.0394 -4.0286,6.0961 -3.123,10.2832 -0.5082,6.7385 3.0909,14.7606 -2.3106,20.1562 -3.269,10.74 -1.6157,22.3747 -2.4498,33.4606 -0.5299,31.4626 -0.9249,62.9274 -1.3939,94.391 -5.5253,9.0707 -12.8741,16.72 -18.4785,25.707 -7.2572,12.5964 -3.6497,27.8167 -4.6872,41.5819 0,7.1729 -0.021,14.353 -2.0589,21.2013 -1.7193,24.3149 0.8481,48.8029 -1.1446,73.0703 -3.9634,6.1769 -11.7879,11.4714 -10.5177,19.6909 -0.8404,32.5388 -0.039,65.1813 -2.6424,97.6197 -0.3687,6.0449 -8.1881,3.3962 -12,4.5429 -64.8591,2.6789 -129.8473,4.8646 -194.8125,5.209 -6.7421,-34.0797 -9.6288,-68.8666 -15.0326,-103.0693 -0.5982,-3.51 0.7354,-10.7412 -4.4908,-10.6709 -3.5911,1.6071 -1.2516,6.8346 -4.7286,8.8496 -3.0891,7.9149 2.5409,17.2098 -2.207,24.6894 -1.8371,6.5842 1.7746,14.3777 -3.1504,19.9258 -1.5095,4.1462 0.8213,8.7987 -1.9922,12.7696 -1.3566,5.1481 -7.4007,0.8024 -10.9023,0.7285 -3.2738,-0.2296 -5.8256,-2.0331 -5.4473,-5.5176 -2.3562,-15.3021 -1.7542,-30.8824 -4.2734,-46.17 -0.5308,-12.0224 -2.3791,-23.9069 -4.646,-35.6756 -2.2862,-24.8716 -3.1401,-49.9811 -7.4185,-74.6095 -0.3183,-3.6247 -5.4283,-3.9721 -6.0039,-0.293 -3.3951,13.8626 -1.7802,28.421 -3.8597,42.5037 -0.9625,13.9341 -3.9432,27.7298 -4.3487,41.751 -1.6165,6.1944 -3.9293,12.4046 -2.5611,18.9504 1.6374,7.1776 -2.669,13.7087 -2.4512,20.9004 -0.9957,11.994 0.452,24.9942 -4.9414,36.2012 -2.3688,4.1053 -9.2969,-1.7984 -11.3105,3.2715 -2.0716,20.8758 0.654,42.1426 -2.1211,62.8945 -2.4133,7.0801 0.5055,15.2246 -2.5274,21.9414 -10.1769,3.331 -22.0247,-1.0015 -32.1914,3.3691 -11.6002,2.6665 -23.9146,0.3023 -35.7676,0.6981 -7.5845,-2.1639 -12.597,4.2792 -17.8788,8.5743 -22.8207,23.5347 -46.8904,45.9509 -69.5294,69.7159 -4.9909,-4.4984 -3.1984,-11.4121 -5.6308,-16.8808 -2.9801,-4.4335 -9.1984,-6.8032 -14.3516,-6.041 -2.9757,1.5995 -4.4657,6.3407 -1.4961,8.6211 0.6633,7.9148 1.8399,16.2804 -0.7168,23.8437 -4.5329,3.8107 -5.7656,13.107 -13.3281,11.4297 -8.9821,-2.3434 -15.9089,-11.9828 -13.1621,-21.3574 0.8003,-12.1842 2.5215,-24.5501 1.2676,-36.7246 -2.252,-5.2866 -7.4804,-8.6776 -9.041,-14.3907 -6.47459,-15.8517 -4.62104,-33.6973 -7.46098,-50.5156 -3.99848,-27.5573 -6.53656,-55.3066 -10.20477,-82.9574 -2.27927,-18.823 -4.17603,-37.8391 -8.37922,-56.316 -1.56426,-3.8311 -6.11166,-1.0645 -5.97461,2.2246 -1.2213,13.2566 -2.08764,26.581 -4.93553,39.6248 -0.61234,6.7758 -0.32587,13.8138 -2.86525,20.1467 -0.85277,7.553 2.48888,15.7697 -2.2539,22.4941 -1.76162,6.042 2.14611,12.8217 -2.25977,18.2051 -2.19509,5.3519 1.38038,11.5271 -0.95703,16.5859 -5.51786,6.5876 1.43195,16.232 -3.29883,23.2031 -2.95017,5.7362 1.00205,12.8438 -1.93945,18.2676 -4.28349,5.9484 0.28309,13.911 -2.00391,20.5508 -1.25045,9.3072 -9.22758,14.9555 -14.61328,21.793 -1.78845,3.9585 3.1743,7.1478 2.09872,11.344 1.26719,24.3589 0.87223,48.8923 1.35831,73.3298 -5.85157,2.5669 -11.00683,7.2598 -12.89062,13.3672 -8.41042,11.3091 -22.32837,16.244 -31.92188,26.1738 -5.86746,10.1993 -14.96289,18.4138 -18.87321,29.7791 -4.05509,8.2157 -0.96518,17.9337 -1.93095,26.799 -0.26204,59.5198 0.62197,119.3414 -1.11771,178.6758 -3.04763,13.1202 -9.57911,25.256 -16.22852,36.8731 -8.72269,10.1532 -20.90165,16.4276 -33.16211,21.4004 -15.28006,4.0992 -30.29138,9.1309 -45.25344,14.2915 -25.53531,7.7754 -52.39465,5.9503 -78.70973,8.7773 -54.7939,5.0694 -109.929,3.0942 -164.93722,3.6527 -177.69538,-0.035 -355.39062,-0.3304 -533.0859314,-0.4852 1.1624903,4.4215 -3.169422,14.3374 4,12.7519 1798.3333214,0 3596.6666214,0 5395.0000214,0 -1.42,-3.8297 3.1592,-13.6652 -3.002,-12.7488 -182.3187,0.018 -364.6392,0.8615 -546.9569,0.224 -14.1442,-0.4438 -28.5732,0.7806 -42.1759,-3.8716 -19.2198,-2.7391 -37.6866,-9.2675 -57.0715,-11.155 -18.4701,-2.8907 -37.226,-1.118 -55.489,-5.1009 -10.0386,-0.866 -19.5059,4.9475 -29.5743,1.9609 -7.6159,-1.8567 -14.3068,-6.7294 -22.4345,-6.7086 -13.7226,-2.0942 -28.7335,-0.4053 -41.3076,-7.182 -8.8712,-6.835 -21.3529,-8.8061 -31.6895,-4.4355 -5.1281,-2.7474 -10.6919,-4.614 -16.3125,-6.0938 -8.0791,-3.5521 -8.8857,-14.0254 -16.1484,-18.3086 -12.2168,-4.9127 -18.7525,-17.9625 -22.8203,-29.707 -3.3657,-10.9414 -11.0709,-20.3478 -12.8653,-31.9277 -0.8423,-7.876 -1.653,-15.8051 -4.8769,-23.168 -0.5214,-6.5599 -4.557,-11.812 -8.8457,-16.5156 -11.6053,-16.1752 -17.0166,-35.441 -21.2989,-54.5743 -3.5262,-8.2727 -11.9711,-13.9238 -13.1953,-23.3652 -0.8444,-14.2228 -6.3242,-27.6406 -11.7031,-40.6543 -2.7247,-13.7051 -7.9592,-27.4366 -4.972,-41.5994 1.389,-13.5026 5.493,-27.3607 1.824,-40.9109 -0.5521,-14.8744 -2.3124,-30.2956 1.5738,-44.8569 5.1348,-18.9277 19.0904,-35.0377 36.8722,-43.311 6.6413,-4.1987 14.5447,-7.2684 19.8797,-13.105 0.4239,-5.0542 -6.687,-3.6833 -9.7078,-3.362 -96.353,8.0795 -192.625,16.5522 -288.9838,24.4751 -44.0458,3.7976 -88.1513,6.7083 -132.2598,9.2208 -14.0062,2.9503 -28.2591,2.4651 -42.4997,3.5919 -1.9414,-4.0322 -0.2815,-12.236 -0.834,-17.877 0,-64.3606 0,-128.7213 0,-193.082 2.3172,-5.2126 7.8372,-9.8783 7.9492,-15.7852 -4.1114,-3.1028 -10.2901,-1.1386 -15.1111,-2.031 -14.9576,-0.4508 -30.125,0.2451 -44.9514,-1.0002 -1.6661,-23.9951 -1.2013,-48.4837 -0.7441,-72.3965 -0.9283,-5.2119 3.6533,-9.8786 2.2734,-14.8808 -3.7228,-2.9994 -9.6799,-0.788 -14.1856,-1.6583 -13.6937,-0.6592 -27.7917,1.0868 -41.1093,-1.3046 -2.3081,-18.1277 -0.869,-36.6986 -1.2834,-55.0273 0.5969,-8.3245 -1.4628,-17.698 3.6525,-24.9493 1.7346,-5.2001 -5.3082,-6.2703 -8.9199,-6.1621 -14.1371,-1.0127 -28.5198,0.9135 -42.5195,-1.2793 -4.5495,-1.9644 -6.0144,-6.1723 -5.0508,-10.9531 0.4134,-24.434 -0.86,-48.9541 0.7636,-73.3379 1.2162,-3.79 7.1068,-7.5735 3.7247,-11.9981 -4.7253,-4.104 -11.9456,-1.6651 -17.6244,-2.6151 -9.0274,-0.1449 -18.0565,-0.063 -27.0846,-0.098 -6.4151,-6.4708 -3.0867,-16.5716 -4.1132,-24.6894 -0.079,-20.7967 -0.025,-41.5938 -0.041,-62.3906 1.6695,-3.2193 7.8514,-6.5692 5.4843,-10.5 -13.8231,-2.5879 -28.3268,-0.1666 -42.0507,-2.459 -6.4336,-2.5504 -3.9261,-11.402 -4.6778,-16.7735 0.5021,-14.7849 -1.2069,-29.8376 0.7129,-44.4238 1.946,-3.1744 8.5887,-6.2505 5.4414,-10.707 -8.4387,-2.6857 -17.8216,-1.4479 -26.617,-2.1047 -6.8308,-0.1012 -13.6616,-0.2023 -20.4923,-0.3035 -3.3229,-16.9139 -7.8532,-34.5591 -19.6929,-47.7706 -8.9018,-10.8423 -20.8696,-20.1916 -35.3247,-21.413 -6.1344,-1.0811 -3.3216,-8.8347 -4.1621,-13.2051 0.1073,-6.4675 -6.5599,-10.3493 -6.0332,-16.9766 -3.2809,-40.6249 -1.1204,-81.6722 -4.1953,-122.3867 -0.5016,-3.7264 -5.2985,-1.8216 -4.5899,1.4121 -2.5741,41.2419 -0.9603,82.7417 -3.4844,123.9121 -2.359,5.074 -7.4891,8.888 -7.3027,15.045 -0.4545,3.6527 -0.57,7.3523 -1.3301,10.9629 -20.7304,2.411 -40.3653,14.4392 -50.239,33.0815 -5.5879,10.418 -9.8604,21.7621 -10.9836,33.5454 -1.6391,4.434 -5.3953,7.733 -10.4229,6.3947 -13.7335,0.7755 -27.8451,-0.6039 -41.3603,2.2088 -4.7379,3.1119 0.9455,8.1583 3.4414,10.4746 -0.2807,19.6931 1.1617,39.4872 -0.3047,59.125 -2.4334,5.0507 -9.6952,2.9031 -14.0741,3.634 -10.635,0.7996 -21.7512,-1.4065 -32.1212,1.407 -5.038,3.2631 0.756,9.1268 1.6914,13.0567 2.2526,19.3422 0.7477,38.9679 1.1334,58.4178 -0.3486,8.5033 0.3956,17.6334 -1.1041,25.7306 -15.8458,2.0494 -32.0638,1.2104 -47.7989,3.6836 -3.8772,3.8579 1.7772,8.8448 2.502,12.9668 2.7168,19.9273 1.5723,40.1908 2.432,60.2807 -0.2409,8.3302 0.9554,17.5458 -0.6293,25.4361 -16.0885,1.8426 -32.4231,0.4829 -48.4531,2.6953 -5.1086,1.7263 -2.5264,8.1848 0.4512,10.6934 5.2671,4.7851 1.539,12.8501 2.6456,19.1523 -0.3554,19.1327 0.7593,38.7793 -1.2179,57.5801 -15.129,2.5328 -31.0078,-0.5335 -45.9765,3.4473 -5.2079,2.5627 -1.6898,10.1497 2.6406,11.5625 1.5898,21.8184 -0.013,43.823 0.2511,65.7078 2.5204,8.606 -8.1256,4.1287 -13.0445,5.3423 -10.765,0.6413 -21.9845,-0.6528 -32.4742,2.0846 -4.571,4.0209 1.4737,9.7422 2.9863,13.7344 8.1954,15.779 4.7769,34.1719 5.1582,51.2191 -0.1612,4.7034 -0.3199,9.538 -0.7343,14.2848 -7.5149,-18.2115 -12.5758,-37.6121 -17.1094,-56.6289 -21.6936,-22.3012 -45.8638,-41.9406 -67.9035,-63.8863 -43.8471,-41.8991 -87.006,-84.5822 -132.3859,-124.8307 -5.9751,-4.9259 -14.6502,-2.2085 -21.3512,-5.6701 -3.8958,-0.3459 -5.0063,-3.3587 -4.4981,-6.9156 -1.1213,-10.3867 1.0634,-21.4267 -1.9727,-31.5879 -4.1623,-3.7278 -10.8743,-1.9999 -16.0039,-2.6934 -5.1146,0.644 -11.6068,-0.9228 -15.8769,2.5586 -3.7523,11.252 0.1634,23.7726 -2.9336,34.9942 -3.9633,4.3252 -11.2396,1.6666 -16.4336,2.4843 -5.9503,-0.079 -12.3983,-1.3478 -15.7129,4.8698 -39.8099,39.8771 -78.4697,80.9039 -119.375,119.6595 -2.1298,3.2212 -6.066,3.8691 -7.8066,-0.2461 -3.5932,-11.584 -3.6245,-24.1378 -5.6149,-36.1201 -7.167,-74.0784 -10.9694,-148.5983 -16.1154,-222.9168 -8.0902,-123.2862 -15.2783,-246.5665 -24.0785,-369.8016 -1.5353,-31.5301 -6.3619,-62.4973 -8.309,-93.9636 -10.335,-123.6951 -21.5805,-247.3205 -32.6967,-370.94396 -3.2665,-50.2671 -6.1152,-100.62241 -9.4219,-150.90044 -1.0128,-7.89982 3.7652,-15.28734 11.0606,-18.20313 6.45,-3.13108 14.0072,-2.34284 20.3945,-5.9082 5.4709,-2.30505 13.6343,-5.21261 12.7988,-12.63867 -0.8148,-18.74135 -1.438,-37.68639 -5.1035,-56.12695 -0.5824,-5.5715 -5.5885,-8.77158 -10.8164,-9.13868 -7.4735,-2.16245 -15.7528,0.17502 -22.8945,-2.8457 -4.4246,-3.96174 -3.4584,-12.94602 2.8398,-14.57226 5.5654,-3.14498 13.8182,-3.17619 17.668,-8.73438 2.6431,-18.09742 0.9834,-36.58883 1.7048,-54.8281 -3.0481,-2.55951 -11.1649,0.069 -16.0618,-0.5976 -5.2577,-0.37202 -11.4564,1.37204 -16.1938,-0.98641 -2.2908,-14.7149 -3.7972,-29.86733 -2.8086,-44.73437 4.2553,-4.38632 13.3049,-4.80552 14.3067,-12.17774 0.089,-6.02835 -7.1745,-5.46667 -11.3125,-6.10742 -5.6083,-2.72762 -2.7144,-10.26004 -4.3985,-15.15234 0.075,-2.77433 -2.4536,-8.2906 -5.2636,-4.38477 0.1975,6.24411 -8.6211,8.29144 -12.2578,3.63281 -13.9398,-11.26688 -25.603,-24.8795 -37.7049,-37.98864 -6.3379,-7.14853 -17.5922,-14.0049 -14.5784,-25.18128 1.6099,-5.77282 2.4494,-12.06189 -0.8359,-17.41406 -2.0086,-9.94437 0.036,-20.42845 -2.8125,-30.28125 -1.6596,-30.46552 0.4768,-61.20907 -1.8691,-91.67188 -0.2477,-1.27135 -2.0112,-2.38905 -3.086,-1.41992 z m 88.7813,293.49219 c 4.4859,0.0921 8.9279,0.81892 13.3867,1.25195 -0.2422,7.74138 1.4065,15.78695 -0.3906,23.36719 -2.1216,-3.92943 -0.041,-11.87761 -6.461,-12.41602 -3.3819,-1.01409 -6.9713,3.17051 -9.8203,0.95313 -2.5923,-3.27867 -4.0704,-9.70677 -0.6445,-12.66602 1.2515,-0.46006 2.612,-0.48472 3.9297,-0.49023 z m 15.9629,78.33203 c 4.6028,-0.78912 11.4577,0.76243 10.8359,6.67969 -1.0446,6.16677 -2.6145,13.48669 -7.6465,17.57226 -7.3331,1.40882 -10.0868,-7.84103 -12.2132,-13.14224 -2.2989,-3.84414 -2.7558,-8.32195 1.6273,-10.54135 2.3824,-0.72525 4.941,-0.48255 7.3965,-0.56836 z m -209.7344,2.65234 c 3.4366,-0.38042 8.9551,0.0869 7.6016,5.05079 -0.8949,6.96309 0.02,15.63715 -5.1329,21.07226 -6.3088,3.30403 -11.1352,-4.44214 -13.6445,-9.1875 -2.5181,-5.08251 -3.7936,-10.86912 -2.8672,-16.52344 4.6982,-0.13689 9.3528,-0.34884 14.043,-0.41211 z M 3678.4991,1738.0833 c 8.5673,0.1632 17.2487,-0.1085 25.6856,1.2383 1.3462,11.4593 1.3612,23.53 -0.02,34.9804 -13.0957,1.4336 -26.387,1.5217 -39.5292,0.6856 -0.4537,-11.9156 -1.3588,-24.4073 0.33,-36.25 4.5116,-0.7005 8.9688,-0.5556 13.5332,-0.6543 z m -41.6894,0.2422 c 3.0239,0.8045 10.1766,-1.865 10.0215,3.3046 0.7453,10.8676 1.8069,22.2855 -0.6055,32.8457 -11.8139,1.8535 -24.139,0.7268 -36.0527,0.5918 -5.6006,0.7618 -2.6445,-6.4236 -3.392,-9.8925 0,-8.8088 0.2629,-17.6147 0.3978,-26.4219 9.8768,-0.1381 19.753,-0.3927 29.6309,-0.4277 z m 41.6894,48.5078 c 8.5575,0.1825 17.296,-0.1448 25.6875,1.2636 1.3352,11.9619 1.3553,24.2369 -0.019,36.1934 -13.0068,1.2639 -26.3636,1.6009 -39.3105,0.4648 -1.1401,-12.2997 -1.2529,-24.9435 0.059,-37.2539 4.5225,-0.7238 9.018,-0.5642 13.584,-0.6679 z m -41.6894,0.2422 c 3.2337,0.7002 10.6364,-1.837 10.1972,3.8125 0.5492,10.8543 1.5252,22.0967 -0.5722,32.8418 -6.2075,2.931 -13.9816,1.0345 -20.75,1.6539 -6.0545,-0.2229 -12.615,0.2167 -18.3614,-0.9704 -1.2599,-12.0743 -0.045,-24.6081 -0.1425,-36.9121 9.8761,-0.137 19.7516,-0.3903 29.6289,-0.4257 z m -42.1973,188.7832 c 4.0503,0.1206 8.2706,-0.1553 12.1934,0.6894 1.115,21.8627 1.0638,43.938 -0.1739,65.7852 -15.1278,2.2123 -30.6346,2.452 -45.7929,0.8203 -2.4992,-2.4402 -0.8775,-7.4164 -1.5471,-10.6367 -0.093,-18.7538 0.2813,-37.5067 0.4025,-56.2598 11.6393,-0.1339 23.2778,-0.3794 34.918,-0.3984 z m 152.5,0 c 3.8811,0.517 9.6626,-0.9711 12.2402,1.4882 0.7306,21.3325 1.4926,42.9718 -0.166,64.252 -1.4411,3.8915 -7.7556,1.5112 -10.7829,2.4588 -11.8796,-0.2539 -24.0858,1.0977 -35.6936,-1.2303 -2.0984,-14.8615 -0.3455,-30.1397 -0.7221,-45.1499 0.069,-7.1401 0.1376,-14.2803 0.2064,-21.4204 11.6393,-0.1339 23.2778,-0.3794 34.918,-0.3984 z m -226.2734,0.4257 c 7.8815,0 15.763,0 23.6445,0 -0.2724,21.9623 1.4296,44.0451 -0.2695,65.9414 -1.7425,2.6658 -6.617,0.9269 -9.3438,1.7344 -12.2945,-0.1259 -25.0798,1.2391 -37.1601,-1.1328 -2.0984,-14.8615 -0.3456,-30.1397 -0.722,-45.1499 0.069,-7.131 0.1375,-14.262 0.2063,-21.3931 7.8816,0 15.7631,0 23.6446,0 z m 276.875,0 c 7.6732,0 15.3463,0 23.0195,0 0.2093,22.2644 0.4196,44.5287 0.6309,66.793 -15.3525,1.6168 -31.1485,0.9398 -46.4317,0.3086 -1.6266,-22.2793 0.019,-44.7519 -0.2383,-67.1016 7.6732,0 15.3464,0 23.0196,0 z m -203.1016,79.5743 c 4.0413,0.1592 8.4033,-0.2339 12.2188,0.7636 1.1,21.5909 1.1882,43.4462 -0.3536,65.0157 -6.3211,2.3707 -13.7438,0.6557 -20.5937,1.2507 -8.5449,-0.3437 -17.9412,0.5528 -25.9668,-1.0828 -1.4666,-21.8002 -0.055,-43.7101 -0.2227,-65.5488 11.6393,-0.1339 23.2778,-0.3794 34.918,-0.3984 z m 152.5,0 c 4.0441,0.1729 8.4592,-0.2621 12.2442,0.7929 1.1762,21.6658 1.2388,43.7426 -0.4883,65.2989 -15.3668,1.6221 -30.9762,1.5893 -46.3145,-0.2207 -1.6717,-21.6941 -0.1835,-43.6628 -0.3594,-65.4727 11.6393,-0.1339 23.2778,-0.3794 34.918,-0.3984 z m -226.2734,0.4257 c 7.8815,0 15.763,0 23.6445,0 -0.2141,21.8423 1.3913,44.0069 -0.4043,65.6192 -14.6514,1.7298 -29.6078,1.0931 -44.3398,0.4394 -4.6277,0.1119 -1.7128,-6.7602 -2.8033,-9.4078 -0.3461,-18.8825 0.1634,-37.7679 0.2583,-56.6508 7.8816,0 15.7631,0 23.6446,0 z m 276.875,0 c 7.6732,0 15.3463,0 23.0195,0 -0.2098,21.9337 1.3348,43.96 -0.2871,65.8438 -15.0265,1.0491 -30.438,1.0455 -45.4629,0 -1.6238,-21.8836 -0.076,-43.9102 -0.2891,-65.8438 7.6732,0 15.3464,0 23.0196,0 z"
       id="path4221"
       inkscape:connector-curvature="0" />
  </g>
</svg>
