<?xml version="1.0" encoding="utf-8"?>
<!-- Generator: Adobe Illustrator 18.0.0, SVG Export Plug-In . SVG Version: 6.00 Build 0)  -->
<!DOCTYPE svg PUBLIC "-//W3C//DTD SVG 1.1//EN" "http://www.w3.org/Graphics/SVG/1.1/DTD/svg11.dtd">
<svg version="1.1" id="Layer_1" xmlns="http://www.w3.org/2000/svg" xmlns:xlink="http://www.w3.org/1999/xlink" x="0px" y="0px"
	 viewBox="0 0 720 540" enable-background="new 0 0 720 540" xml:space="preserve">
<g>
	<path d="M121.2,318.9v-86.4h32.2v12h-14.9v19.9h14.5v12.5h-14.5v42H121.2z"/>
	<path d="M157.5,318.9v-69.1h15v5.8h0.2c1.3-2.4,2.8-4.2,4.6-5.4c1.8-1.2,3.9-1.7,6.3-1.7c3.3,0,5.8,1,7.5,3c1.7,2,2.5,4.9,2.5,8.8
		v26.7h-15.4v-21.7c0-1.6-0.2-2.7-0.6-3.3c-0.4-0.6-1.1-0.8-2.1-0.8c-0.9,0-1.6,0.3-2.1,1c-0.4,0.7-0.7,1.7-0.7,3.1v53.6H157.5z"/>
	<path d="M214.5,304.9c0,1.5,0.2,2.6,0.6,3.3c0.4,0.6,1.1,1,2.1,1c1,0,1.7-0.3,2.1-1c0.4-0.6,0.6-1.7,0.6-3.3V292h15.2v12.8
		c0,5-1.6,8.9-4.7,11.6c-3.1,2.8-7.6,4.1-13.3,4.1c-6.4,0-11.1-1.5-13.8-4.5c-2.8-3-4.2-8-4.2-15.2v-33.1c0-7.3,1.4-12.4,4.1-15.3
		c2.7-2.9,7.3-4.4,13.8-4.4c5.7,0,10.1,1.3,13.3,4c3.2,2.6,4.8,6.3,4.8,10.9v23.5h-20.7V304.9z M214.5,263.1v13.1h5.5v-13.1
		c0-1.5-0.2-2.6-0.6-3.3c-0.4-0.6-1.1-1-2.1-1c-1,0-1.7,0.3-2.1,1C214.7,260.5,214.5,261.6,214.5,263.1z"/>
	<path d="M240,245.6v-13.1h15.2v13.1H240z M240,318.9v-69.1h15.2v69.1H240z"/>
	<path d="M262.7,318.9v-58.2h-3.8v-11h3.8v-6.6c0-3.4,1-6,3-7.9c2-1.9,4.9-2.8,8.5-2.8h8.6v10.8c-1.8,0-3.1,0.2-3.8,0.6
		c-0.7,0.4-1.1,1.1-1.1,2.1v3.7h4.9v11h-4.9v58.2H262.7z"/>
	<path d="M321.7,249.7v69.1h-15v-5.7h-0.4c-1.3,2.4-2.8,4.1-4.5,5.2c-1.7,1.1-3.8,1.7-6.2,1.7c-3.3,0-5.8-1-7.5-2.9
		c-1.7-1.9-2.5-4.8-2.5-8.7v-58.7h15.2v53.7c0,1.5,0.2,2.6,0.7,3.2c0.4,0.6,1.2,0.9,2.2,0.9c0.9,0,1.6-0.3,2-0.9
		c0.4-0.6,0.6-1.7,0.6-3.1v-53.7H321.7z"/>
	<path d="M326.5,318.9v-69.1h15v5.8h0.2c1.3-2.4,2.8-4.2,4.6-5.4c1.8-1.2,3.9-1.7,6.3-1.7c3.3,0,5.8,1,7.5,3c1.7,2,2.5,4.9,2.5,8.8
		v58.7h-15.4v-53.6c0-1.6-0.2-2.7-0.6-3.3c-0.4-0.6-1.1-0.8-2.1-0.8c-0.9,0-1.6,0.3-2.1,1c-0.4,0.7-0.7,1.7-0.7,3.1v53.6H326.5z"/>
	<path d="M367.4,318.9v-86.4h15.2v47.4h0.2l6.5-30.1H405l-7.6,29.9l7.6,39.3h-16.1l-6-36.2h-0.2v36.2H367.4z"/>
	<path d="M429.9,318.9v-86.4h23.7l6.1,36.6c0.5,3.3,1,7,1.4,11c0.4,4.1,0.7,8.7,1,13.9h0.7c-0.3-6.1-0.5-11.4-0.6-16
		c-0.1-4.5-0.2-7.8-0.2-9.8l-0.1-35.8h13.5v86.4h-20.3l-8.8-46.9c-0.4-1.8-0.8-4.6-1.3-8.3c-0.5-3.7-1.1-7.8-1.6-12.2h-0.5
		c0.2,3.6,0.4,6.7,0.6,9.4c0.1,2.7,0.2,4.9,0.2,6.6v51.4H429.9z"/>
	<path d="M480.4,267.8c0-7.1,1.4-12.2,4.2-15.2c2.8-3,7.4-4.5,13.8-4.5c6.4,0,11,1.5,13.8,4.5c2.8,3,4.2,8.1,4.2,15.2v33.1
		c0,7.1-1.4,12.2-4.2,15.2c-2.8,3-7.4,4.5-13.8,4.5c-6.4,0-11-1.5-13.8-4.5c-2.8-3-4.2-8.1-4.2-15.2V267.8z M495.8,263.1v41.8
		c0,1.5,0.2,2.6,0.6,3.3c0.4,0.6,1.1,1,2.1,1c1,0,1.7-0.3,2.1-1c0.4-0.6,0.6-1.7,0.6-3.3v-41.8c0-1.5-0.2-2.6-0.7-3.2
		c-0.4-0.7-1.2-1-2.2-1c-0.9,0-1.6,0.3-2,0.9C496,260.4,495.8,261.5,495.8,263.1z"/>
	<path d="M521.2,318.9v-69.1h15v5.8h0.2c1.3-2.4,2.8-4.2,4.6-5.4c1.8-1.2,3.9-1.7,6.3-1.7c3.3,0,5.8,1,7.5,3c1.7,2,2.5,4.9,2.5,8.8
		v26.7h-15.4v-21.7c0-1.6-0.2-2.7-0.6-3.3c-0.4-0.6-1.1-0.8-2.1-0.8c-0.9,0-1.6,0.3-2.1,1c-0.4,0.7-0.7,1.7-0.7,3.1v53.6H521.2z"/>
	<path d="M598.9,318.9h-15v-6h-0.2c-1,2.5-2.4,4.5-4.2,5.7s-4,1.9-6.7,1.9c-3.3,0-5.8-1-7.4-2.9c-1.6-1.9-2.4-4.9-2.4-8.8v-48.7
		c0-3.9,0.8-6.9,2.5-8.8c1.6-2,4.1-2.9,7.4-2.9c2.4,0,4.5,0.6,6.3,1.8s3.2,3,4.4,5.3h0.2v-23.1h15.2V318.9z M578.2,303.8
		c0,1.6,0.2,2.7,0.6,3.3c0.4,0.6,1.1,0.9,2.1,0.9c0.9,0,1.6-0.4,2.1-1.1c0.4-0.7,0.7-1.8,0.7-3.2v-38.5c0-1.4-0.2-2.4-0.7-3.1
		c-0.4-0.7-1.1-1-2.1-1c-1,0-1.7,0.3-2.1,0.8c-0.4,0.6-0.6,1.7-0.6,3.3V303.8z"/>
</g>
</svg>
